<svg xmlns="http://www.w3.org/2000/svg" width="640" height="640" viewBox="0 0 640 640"><defs><linearGradient id="azure-sql-0-material-071823" x1="0" y1="0" x2=".8" y2="1"><stop stop-color="#1e2f3a"/><stop offset=".18" stop-color="#0e1f2a"/><stop offset=".65" stop-color="#071823"/><stop offset="1" stop-color="#00030e"/></linearGradient><linearGradient id="azure-sql-0-material-182d40" x1="0" y1="0" x2=".8" y2="1"><stop stop-color="#2f4457"/><stop offset=".18" stop-color="#1f3447"/><stop offset=".65" stop-color="#182d40"/><stop offset="1" stop-color="#03182b"/></linearGradient><linearGradient id="azure-sql-0-material-102335" x1="0" y1="0" x2=".8" y2="1"><stop stop-color="#273a4c"/><stop offset=".18" stop-color="#172a3c"/><stop offset=".65" stop-color="#102335"/><stop offset="1" stop-color="#000e20"/></linearGradient><linearGradient id="azure-sql-0-material-3a5363" x1="0" y1="0" x2=".8" y2="1"><stop stop-color="#516a7a"/><stop offset=".18" stop-color="#415a6a"/><stop offset=".65" stop-color="#3a5363"/><stop offset="1" stop-color="#253e4e"/></linearGradient><linearGradient id="azure-sql-0-material-2d4657" x1="0" y1="0" x2=".8" y2="1"><stop stop-color="#445d6e"/><stop offset=".18" stop-color="#344d5e"/><stop offset=".65" stop-color="#2d4657"/><stop offset="1" stop-color="#183142"/></linearGradient><linearGradient id="azure-sql-0-material-233b4c" x1="0" y1="0" x2=".8" y2="1"><stop stop-color="#3a5263"/><stop offset=".18" stop-color="#2a4253"/><stop offset=".65" stop-color="#233b4c"/><stop offset="1" stop-color="#0e2637"/></linearGradient><linearGradient id="azure-sql-0-material-526a78" x1="0" y1="0" x2=".8" y2="1"><stop stop-color="#69818f"/><stop offset=".18" stop-color="#59717f"/><stop offset=".65" stop-color="#526a78"/><stop offset="1" stop-color="#3d5563"/></linearGradient><linearGradient id="azure-sql-0-material-4c6476" x1="0" y1="0" x2=".8" y2="1"><stop stop-color="#637b8d"/><stop offset=".18" stop-color="#536b7d"/><stop offset=".65" stop-color="#4c6476"/><stop offset="1" stop-color="#374f61"/></linearGradient><linearGradient id="azure-sql-0-material-2f465c" x1="0" y1="0" x2=".8" y2="1"><stop stop-color="#465d73"/><stop offset=".18" stop-color="#364d63"/><stop offset=".65" stop-color="#2f465c"/><stop offset="1" stop-color="#1a3147"/></linearGradient><linearGradient id="azure-sql-0-material-9eafb6" x1="0" y1="0" x2=".8" y2="1"><stop stop-color="#b5c6cd"/><stop offset=".18" stop-color="#a5b6bd"/><stop offset=".65" stop-color="#9eafb6"/><stop offset="1" stop-color="#899aa1"/></linearGradient><linearGradient id="azure-sql-0-material-405b6d" x1="0" y1="0" x2=".8" y2="1"><stop stop-color="#577284"/><stop offset=".18" stop-color="#476274"/><stop offset=".65" stop-color="#405b6d"/><stop offset="1" stop-color="#2b4658"/></linearGradient><linearGradient id="azure-sql-0-material-233e56" x1="0" y1="0" x2=".8" y2="1"><stop stop-color="#3a556d"/><stop offset=".18" stop-color="#2a455d"/><stop offset=".65" stop-color="#233e56"/><stop offset="1" stop-color="#0e2941"/></linearGradient><linearGradient id="azure-sql-0-material-718b9d" x1="0" y1="0" x2=".8" y2="1"><stop stop-color="#88a2b4"/><stop offset=".18" stop-color="#7892a4"/><stop offset=".65" stop-color="#718b9d"/><stop offset="1" stop-color="#5c7688"/></linearGradient><linearGradient id="azure-sql-0-material-607e9a" x1="0" y1="0" x2=".8" y2="1"><stop stop-color="#7795b1"/><stop offset=".18" stop-color="#6785a1"/><stop offset=".65" stop-color="#607e9a"/><stop offset="1" stop-color="#4b6985"/></linearGradient><linearGradient id="azure-sql-0-material-284661" x1="0" y1="0" x2=".8" y2="1"><stop stop-color="#3f5d78"/><stop offset=".18" stop-color="#2f4d68"/><stop offset=".65" stop-color="#284661"/><stop offset="1" stop-color="#13314c"/></linearGradient><linearGradient id="azure-sql-0-material-c2d7de" x1="0" y1="0" x2=".8" y2="1"><stop stop-color="#d9eef5"/><stop offset=".18" stop-color="#c9dee5"/><stop offset=".65" stop-color="#c2d7de"/><stop offset="1" stop-color="#adc2c9"/></linearGradient><linearGradient id="azure-sql-0-material-354f60" x1="0" y1="0" x2=".8" y2="1"><stop stop-color="#4c6677"/><stop offset=".18" stop-color="#3c5667"/><stop offset=".65" stop-color="#354f60"/><stop offset="1" stop-color="#203a4b"/></linearGradient><linearGradient id="azure-sql-0-material-1b3448" x1="0" y1="0" x2=".8" y2="1"><stop stop-color="#324b5f"/><stop offset=".18" stop-color="#223b4f"/><stop offset=".65" stop-color="#1b3448"/><stop offset="1" stop-color="#061f33"/></linearGradient><linearGradient id="azure-sql-0-material-365d81" x1="0" y1="0" x2=".8" y2="1"><stop stop-color="#4d7498"/><stop offset=".18" stop-color="#3d6488"/><stop offset=".65" stop-color="#365d81"/><stop offset="1" stop-color="#21486c"/></linearGradient><linearGradient id="azure-sql-0-material-4f7394" x1="0" y1="0" x2=".8" y2="1"><stop stop-color="#668aab"/><stop offset=".18" stop-color="#567a9b"/><stop offset=".65" stop-color="#4f7394"/><stop offset="1" stop-color="#3a5e7f"/></linearGradient><linearGradient id="azure-sql-0-material-1e3b58" x1="0" y1="0" x2=".8" y2="1"><stop stop-color="#35526f"/><stop offset=".18" stop-color="#25425f"/><stop offset=".65" stop-color="#1e3b58"/><stop offset="1" stop-color="#092643"/></linearGradient><linearGradient id="azure-sql-0-material-9db4c6" x1="0" y1="0" x2=".8" y2="1"><stop stop-color="#b4cbdd"/><stop offset=".18" stop-color="#a4bbcd"/><stop offset=".65" stop-color="#9db4c6"/><stop offset="1" stop-color="#889fb1"/></linearGradient><linearGradient id="azure-sql-0-material-7b929e" x1="0" y1="0" x2=".8" y2="1"><stop stop-color="#92a9b5"/><stop offset=".18" stop-color="#8299a5"/><stop offset=".65" stop-color="#7b929e"/><stop offset="1" stop-color="#667d89"/></linearGradient><linearGradient id="azure-sql-0-material-8c9da5" x1="0" y1="0" x2=".8" y2="1"><stop stop-color="#a3b4bc"/><stop offset=".18" stop-color="#93a4ac"/><stop offset=".65" stop-color="#8c9da5"/><stop offset="1" stop-color="#778890"/></linearGradient><linearGradient id="azure-sql-0-material-101f2d" x1="0" y1="0" x2=".8" y2="1"><stop stop-color="#273644"/><stop offset=".18" stop-color="#172634"/><stop offset=".65" stop-color="#101f2d"/><stop offset="1" stop-color="#000a18"/></linearGradient></defs><g><polygon points="320,262.29999999999995 617,405.3 320,548.3 23,405.3" fill="url(#azure-sql-0-material-071823)" stroke="#172d3d" stroke-width="1" stroke-linejoin="round" data-material="#071823"/><polygon points="50,398 320,528 320,515 50,385" fill="url(#azure-sql-0-material-182d40)" stroke="#172d3d" stroke-width="1" stroke-linejoin="round" data-material="#182d40"/><polygon points="590,398 320,528 320,515 590,385" fill="url(#azure-sql-0-material-102335)" stroke="#172d3d" stroke-width="1" stroke-linejoin="round" data-material="#102335"/><polygon points="320,255 590,385 320,515 50,385" fill="url(#azure-sql-0-material-3a5363)" stroke="#172d3d" stroke-width="1" stroke-linejoin="round" data-material="#3a5363"/><path d="M50,385L320,515" fill="none" stroke="#536c7c" stroke-width="1.2" stroke-linecap="round"/><path d="M320,515L590,385" fill="none" stroke="#3f5868" stroke-width="1" stroke-linecap="round"/><path d="M320,515L320,528" fill="none" stroke="#273c4f" stroke-width="1" stroke-linecap="round"/><polygon points="66.19999999999999,385 320,507.20000000000005 320,501.20000000000005 66.19999999999999,379" fill="url(#azure-sql-0-material-2d4657)" stroke="#172d3d" stroke-width="1" stroke-linejoin="round" data-material="#2d4657"/><polygon points="573.8,385 320,507.20000000000005 320,501.20000000000005 573.8,379" fill="url(#azure-sql-0-material-233b4c)" stroke="#172d3d" stroke-width="1" stroke-linejoin="round" data-material="#233b4c"/><polygon points="320,256.8 573.8,379 320,501.20000000000005 66.19999999999999,379" fill="url(#azure-sql-0-material-526a78)" stroke="#172d3d" stroke-width="1" stroke-linejoin="round" data-material="#526a78"/><path d="M66.19999999999999,379L320,501.20000000000005" fill="none" stroke="#6b8391" stroke-width="1.2" stroke-linecap="round"/><path d="M320,501.20000000000005L573.8,379" fill="none" stroke="#576f7d" stroke-width="1" stroke-linecap="round"/><path d="M320,501.20000000000005L320,507.20000000000005" fill="none" stroke="#3c5566" stroke-width="1" stroke-linecap="round"/><polygon points="162.04999999999998,377.05 320,453.1 320,300.1 162.04999999999998,224.05" fill="url(#azure-sql-0-material-4c6476)" stroke="#172d3d" stroke-width="1" stroke-linejoin="round" data-material="#4c6476"/><polygon points="482,375.1 320,453.1 320,300.1 482,222.10000000000002" fill="url(#azure-sql-0-material-2f465c)" stroke="#172d3d" stroke-width="1" stroke-linejoin="round" data-material="#2f465c"/><polygon points="324.05,146.05 482,222.10000000000002 320,300.1 162.04999999999998,224.05" fill="url(#azure-sql-0-material-9eafb6)" stroke="#172d3d" stroke-width="1" stroke-linejoin="round" data-material="#9eafb6"/><path d="M162.04999999999998,224.05L320,300.1" fill="none" stroke="#b7c8cf" stroke-width="1.2" stroke-linecap="round"/><path d="M320,300.1L482,222.10000000000002" fill="none" stroke="#a3b4bb" stroke-width="1" stroke-linecap="round"/><path d="M320,300.1L320,453.1" fill="none" stroke="#5b7385" stroke-width="1" stroke-linecap="round"/><polygon points="141.79999999999998,365.4 321.35,451.85 321.35,441.85 141.79999999999998,355.4" fill="url(#azure-sql-0-material-405b6d)" stroke="#172d3d" stroke-width="1" stroke-linejoin="round" data-material="#405b6d"/><polygon points="500.9,365.4 321.35,451.85 321.35,441.85 500.9,355.4" fill="url(#azure-sql-0-material-233e56)" stroke="#172d3d" stroke-width="1" stroke-linejoin="round" data-material="#233e56"/><polygon points="321.35,268.95 500.9,355.4 321.35,441.85 141.79999999999998,355.4" fill="url(#azure-sql-0-material-718b9d)" stroke="#172d3d" stroke-width="1" stroke-linejoin="round" data-material="#718b9d"/><path d="M141.79999999999998,355.4L321.35,441.85" fill="none" stroke="#8aa4b6" stroke-width="1.2" stroke-linecap="round"/><path d="M321.35,441.85L500.9,355.4" fill="none" stroke="#7690a2" stroke-width="1" stroke-linecap="round"/><path d="M321.35,441.85L321.35,451.85" fill="none" stroke="#4f6a7c" stroke-width="1" stroke-linecap="round"/><g opacity=".14"><path d="M144.5,356.4L321.35,441.55" fill="none" stroke="#74b7d1" stroke-width="10" stroke-linecap="round"/><path d="M321.35,441.55L498.20000000000005,356.4" fill="none" stroke="#74b7d1" stroke-width="8" stroke-linecap="round"/></g><path d="M144.5,356.4L321.35,441.55" fill="none" stroke="#74b7d1" stroke-width="2" stroke-linecap="round"/><path d="M321.35,441.55L498.20000000000005,356.4" fill="none" stroke="#74b7d1" stroke-width="1.5" stroke-linecap="round"/><path d="M174.2,357.9L174.2,344.9" fill="none" stroke="#1b3245" stroke-width="2" stroke-linecap="round"/><path d="M190.39999999999998,365.7L190.39999999999998,352.7" fill="none" stroke="#1b3245" stroke-width="2" stroke-linecap="round"/><path d="M206.6,373.5L206.6,360.5" fill="none" stroke="#1b3245" stroke-width="2" stroke-linecap="round"/><path d="M222.8,381.3L222.8,368.3" fill="none" stroke="#1b3245" stroke-width="2" stroke-linecap="round"/><path d="M239,389.1L239,376.1" fill="none" stroke="#1b3245" stroke-width="2" stroke-linecap="round"/><path d="M255.2,396.9L255.2,383.9" fill="none" stroke="#1b3245" stroke-width="2" stroke-linecap="round"/><path d="M271.4,404.7L271.4,391.7" fill="none" stroke="#1b3245" stroke-width="2" stroke-linecap="round"/><path d="M287.6,412.5L287.6,399.5" fill="none" stroke="#1b3245" stroke-width="2" stroke-linecap="round"/><path d="M303.8,420.3L303.8,407.3" fill="none" stroke="#1b3245" stroke-width="2" stroke-linecap="round"/><polygon points="141.79999999999998,330.4 321.35,416.85 321.35,406.85 141.79999999999998,320.4" fill="url(#azure-sql-0-material-405b6d)" stroke="#172d3d" stroke-width="1" stroke-linejoin="round" data-material="#405b6d"/><polygon points="500.9,330.4 321.35,416.85 321.35,406.85 500.9,320.4" fill="url(#azure-sql-0-material-233e56)" stroke="#172d3d" stroke-width="1" stroke-linejoin="round" data-material="#233e56"/><polygon points="321.35,233.95 500.9,320.4 321.35,406.85 141.79999999999998,320.4" fill="url(#azure-sql-0-material-718b9d)" stroke="#172d3d" stroke-width="1" stroke-linejoin="round" data-material="#718b9d"/><path d="M141.79999999999998,320.4L321.35,406.85" fill="none" stroke="#8aa4b6" stroke-width="1.2" stroke-linecap="round"/><path d="M321.35,406.85L500.9,320.4" fill="none" stroke="#7690a2" stroke-width="1" stroke-linecap="round"/><path d="M321.35,406.85L321.35,416.85" fill="none" stroke="#4f6a7c" stroke-width="1" stroke-linecap="round"/><g opacity=".14"><path d="M144.5,321.4L321.35,406.55" fill="none" stroke="#74b7d1" stroke-width="10" stroke-linecap="round"/><path d="M321.35,406.55L498.20000000000005,321.4" fill="none" stroke="#74b7d1" stroke-width="8" stroke-linecap="round"/></g><path d="M144.5,321.4L321.35,406.55" fill="none" stroke="#74b7d1" stroke-width="2" stroke-linecap="round"/><path d="M321.35,406.55L498.20000000000005,321.4" fill="none" stroke="#74b7d1" stroke-width="1.5" stroke-linecap="round"/><path d="M174.2,322.9L174.2,309.9" fill="none" stroke="#1b3245" stroke-width="2" stroke-linecap="round"/><path d="M190.39999999999998,330.7L190.39999999999998,317.7" fill="none" stroke="#1b3245" stroke-width="2" stroke-linecap="round"/><path d="M206.6,338.5L206.6,325.5" fill="none" stroke="#1b3245" stroke-width="2" stroke-linecap="round"/><path d="M222.8,346.3L222.8,333.3" fill="none" stroke="#1b3245" stroke-width="2" stroke-linecap="round"/><path d="M239,354.1L239,341.1" fill="none" stroke="#1b3245" stroke-width="2" stroke-linecap="round"/><path d="M255.2,361.9L255.2,348.9" fill="none" stroke="#1b3245" stroke-width="2" stroke-linecap="round"/><path d="M271.4,369.7L271.4,356.7" fill="none" stroke="#1b3245" stroke-width="2" stroke-linecap="round"/><path d="M287.6,377.5L287.6,364.5" fill="none" stroke="#1b3245" stroke-width="2" stroke-linecap="round"/><path d="M303.8,385.3L303.8,372.3" fill="none" stroke="#1b3245" stroke-width="2" stroke-linecap="round"/><polygon points="141.79999999999998,295.4 321.35,381.85 321.35,371.85 141.79999999999998,285.4" fill="url(#azure-sql-0-material-405b6d)" stroke="#172d3d" stroke-width="1" stroke-linejoin="round" data-material="#405b6d"/><polygon points="500.9,295.4 321.35,381.85 321.35,371.85 500.9,285.4" fill="url(#azure-sql-0-material-233e56)" stroke="#172d3d" stroke-width="1" stroke-linejoin="round" data-material="#233e56"/><polygon points="321.35,198.95 500.9,285.4 321.35,371.85 141.79999999999998,285.4" fill="url(#azure-sql-0-material-718b9d)" stroke="#172d3d" stroke-width="1" stroke-linejoin="round" data-material="#718b9d"/><path d="M141.79999999999998,285.4L321.35,371.85" fill="none" stroke="#8aa4b6" stroke-width="1.2" stroke-linecap="round"/><path d="M321.35,371.85L500.9,285.4" fill="none" stroke="#7690a2" stroke-width="1" stroke-linecap="round"/><path d="M321.35,371.85L321.35,381.85" fill="none" stroke="#4f6a7c" stroke-width="1" stroke-linecap="round"/><g opacity=".14"><path d="M144.5,286.4L321.35,371.55" fill="none" stroke="#74b7d1" stroke-width="10" stroke-linecap="round"/><path d="M321.35,371.55L498.20000000000005,286.4" fill="none" stroke="#74b7d1" stroke-width="8" stroke-linecap="round"/></g><path d="M144.5,286.4L321.35,371.55" fill="none" stroke="#74b7d1" stroke-width="2" stroke-linecap="round"/><path d="M321.35,371.55L498.20000000000005,286.4" fill="none" stroke="#74b7d1" stroke-width="1.5" stroke-linecap="round"/><path d="M174.2,287.9L174.2,274.9" fill="none" stroke="#1b3245" stroke-width="2" stroke-linecap="round"/><path d="M190.39999999999998,295.7L190.39999999999998,282.7" fill="none" stroke="#1b3245" stroke-width="2" stroke-linecap="round"/><path d="M206.6,303.5L206.6,290.5" fill="none" stroke="#1b3245" stroke-width="2" stroke-linecap="round"/><path d="M222.8,311.3L222.8,298.3" fill="none" stroke="#1b3245" stroke-width="2" stroke-linecap="round"/><path d="M239,319.1L239,306.1" fill="none" stroke="#1b3245" stroke-width="2" stroke-linecap="round"/><path d="M255.2,326.9L255.2,313.9" fill="none" stroke="#1b3245" stroke-width="2" stroke-linecap="round"/><path d="M271.4,334.7L271.4,321.7" fill="none" stroke="#1b3245" stroke-width="2" stroke-linecap="round"/><path d="M287.6,342.5L287.6,329.5" fill="none" stroke="#1b3245" stroke-width="2" stroke-linecap="round"/><path d="M303.8,350.3L303.8,337.3" fill="none" stroke="#1b3245" stroke-width="2" stroke-linecap="round"/><polygon points="141.79999999999998,260.4 321.35,346.85 321.35,336.85 141.79999999999998,250.39999999999998" fill="url(#azure-sql-0-material-405b6d)" stroke="#172d3d" stroke-width="1" stroke-linejoin="round" data-material="#405b6d"/><polygon points="500.9,260.4 321.35,346.85 321.35,336.85 500.9,250.39999999999998" fill="url(#azure-sql-0-material-233e56)" stroke="#172d3d" stroke-width="1" stroke-linejoin="round" data-material="#233e56"/><polygon points="321.35,163.95 500.9,250.39999999999998 321.35,336.85 141.79999999999998,250.39999999999998" fill="url(#azure-sql-0-material-718b9d)" stroke="#172d3d" stroke-width="1" stroke-linejoin="round" data-material="#718b9d"/><path d="M141.79999999999998,250.39999999999998L321.35,336.85" fill="none" stroke="#8aa4b6" stroke-width="1.2" stroke-linecap="round"/><path d="M321.35,336.85L500.9,250.39999999999998" fill="none" stroke="#7690a2" stroke-width="1" stroke-linecap="round"/><path d="M321.35,336.85L321.35,346.85" fill="none" stroke="#4f6a7c" stroke-width="1" stroke-linecap="round"/><g opacity=".14"><path d="M144.5,251.39999999999998L321.35,336.55" fill="none" stroke="#74b7d1" stroke-width="10" stroke-linecap="round"/><path d="M321.35,336.55L498.20000000000005,251.39999999999998" fill="none" stroke="#74b7d1" stroke-width="8" stroke-linecap="round"/></g><path d="M144.5,251.39999999999998L321.35,336.55" fill="none" stroke="#74b7d1" stroke-width="2" stroke-linecap="round"/><path d="M321.35,336.55L498.20000000000005,251.39999999999998" fill="none" stroke="#74b7d1" stroke-width="1.5" stroke-linecap="round"/><path d="M174.2,252.89999999999998L174.2,239.89999999999998" fill="none" stroke="#1b3245" stroke-width="2" stroke-linecap="round"/><path d="M190.39999999999998,260.7L190.39999999999998,247.7" fill="none" stroke="#1b3245" stroke-width="2" stroke-linecap="round"/><path d="M206.6,268.5L206.6,255.5" fill="none" stroke="#1b3245" stroke-width="2" stroke-linecap="round"/><path d="M222.8,276.3L222.8,263.3" fill="none" stroke="#1b3245" stroke-width="2" stroke-linecap="round"/><path d="M239,284.1L239,271.1" fill="none" stroke="#1b3245" stroke-width="2" stroke-linecap="round"/><path d="M255.2,291.9L255.2,278.9" fill="none" stroke="#1b3245" stroke-width="2" stroke-linecap="round"/><path d="M271.4,299.7L271.4,286.7" fill="none" stroke="#1b3245" stroke-width="2" stroke-linecap="round"/><path d="M287.6,307.5L287.6,294.5" fill="none" stroke="#1b3245" stroke-width="2" stroke-linecap="round"/><path d="M303.8,315.3L303.8,302.3" fill="none" stroke="#1b3245" stroke-width="2" stroke-linecap="round"/><polygon points="148.54999999999998,222.75 322.7,306.6 322.7,287.6 148.54999999999998,203.75" fill="url(#azure-sql-0-material-607e9a)" stroke="#172d3d" stroke-width="1" stroke-linejoin="round" data-material="#607e9a"/><polygon points="495.5,223.39999999999998 322.7,306.6 322.7,287.6 495.5,204.39999999999998" fill="url(#azure-sql-0-material-284661)" stroke="#172d3d" stroke-width="1" stroke-linejoin="round" data-material="#284661"/><polygon points="321.35,120.55000000000001 495.5,204.39999999999998 322.7,287.6 148.54999999999998,203.75" fill="url(#azure-sql-0-material-c2d7de)" stroke="#172d3d" stroke-width="1" stroke-linejoin="round" data-material="#c2d7de"/><path d="M148.54999999999998,203.75L322.7,287.6" fill="none" stroke="#dbf0f7" stroke-width="1.2" stroke-linecap="round"/><path d="M322.7,287.6L495.5,204.39999999999998" fill="none" stroke="#c7dce3" stroke-width="1" stroke-linecap="round"/><path d="M322.7,287.6L322.7,306.6" fill="none" stroke="#6f8da9" stroke-width="1" stroke-linecap="round"/><polygon points="202.55,203.75 322.7,261.6 322.7,245.60000000000002 202.55,187.75" fill="url(#azure-sql-0-material-354f60)" stroke="#172d3d" stroke-width="1" stroke-linejoin="round" data-material="#354f60"/><polygon points="440.15,205.05 322.7,261.6 322.7,245.60000000000002 440.15,189.05" fill="url(#azure-sql-0-material-1b3448)" stroke="#172d3d" stroke-width="1" stroke-linejoin="round" data-material="#1b3448"/><polygon points="320,131.2 440.15,189.05 322.7,245.60000000000002 202.55,187.75" fill="url(#azure-sql-0-material-365d81)" stroke="#172d3d" stroke-width="1" stroke-linejoin="round" data-material="#365d81"/><path d="M202.55,187.75L322.7,245.60000000000002" fill="none" stroke="#4f769a" stroke-width="1.2" stroke-linecap="round"/><path d="M322.7,245.60000000000002L440.15,189.05" fill="none" stroke="#3b6286" stroke-width="1" stroke-linecap="round"/><path d="M322.7,245.60000000000002L322.7,261.6" fill="none" stroke="#445e6f" stroke-width="1" stroke-linecap="round"/><ellipse cx="320" cy="187" rx="69" ry="33" fill="#0e2442" stroke="#90bcd4" stroke-width="9"/><ellipse cx="320" cy="187" rx="51" ry="23" fill="#439bbc" stroke="#9aecff" stroke-width="5"/><ellipse cx="320" cy="187" rx="26" ry="12" fill="#c1fbff"/><polygon points="137.75,374.45 159.35,384.85 159.35,218.85000000000002 137.75,208.45" fill="url(#azure-sql-0-material-4f7394)" stroke="#172d3d" stroke-width="1" stroke-linejoin="round" data-material="#4f7394"/><polygon points="191.75,369.25 159.35,384.85 159.35,218.85000000000002 191.75,203.25" fill="url(#azure-sql-0-material-1e3b58)" stroke="#172d3d" stroke-width="1" stroke-linejoin="round" data-material="#1e3b58"/><polygon points="170.14999999999998,192.85000000000002 191.75,203.25 159.35,218.85000000000002 137.75,208.45" fill="url(#azure-sql-0-material-9db4c6)" stroke="#172d3d" stroke-width="1" stroke-linejoin="round" data-material="#9db4c6"/><path d="M137.75,208.45L159.35,218.85000000000002" fill="none" stroke="#b6cddf" stroke-width="1.2" stroke-linecap="round"/><path d="M159.35,218.85000000000002L191.75,203.25" fill="none" stroke="#a2b9cb" stroke-width="1" stroke-linecap="round"/><path d="M159.35,218.85000000000002L159.35,384.85" fill="none" stroke="#5e82a3" stroke-width="1" stroke-linecap="round"/><g opacity=".14"><path d="M137.75,255.45L159.35,265.85" fill="none" stroke="#94daf2" stroke-width="10" stroke-linecap="round"/><path d="M159.35,265.85L191.75,250.25" fill="none" stroke="#94daf2" stroke-width="8" stroke-linecap="round"/></g><path d="M137.75,255.45L159.35,265.85" fill="none" stroke="#94daf2" stroke-width="2" stroke-linecap="round"/><path d="M159.35,265.85L191.75,250.25" fill="none" stroke="#94daf2" stroke-width="1.5" stroke-linecap="round"/><polygon points="307.85,456.35 329.45,466.75 329.45,300.75 307.85,290.35" fill="url(#azure-sql-0-material-4f7394)" stroke="#172d3d" stroke-width="1" stroke-linejoin="round" data-material="#4f7394"/><polygon points="361.85,451.15 329.45,466.75 329.45,300.75 361.85,285.15" fill="url(#azure-sql-0-material-1e3b58)" stroke="#172d3d" stroke-width="1" stroke-linejoin="round" data-material="#1e3b58"/><polygon points="340.25,274.75 361.85,285.15 329.45,300.75 307.85,290.35" fill="url(#azure-sql-0-material-9db4c6)" stroke="#172d3d" stroke-width="1" stroke-linejoin="round" data-material="#9db4c6"/><path d="M307.85,290.35L329.45,300.75" fill="none" stroke="#b6cddf" stroke-width="1.2" stroke-linecap="round"/><path d="M329.45,300.75L361.85,285.15" fill="none" stroke="#a2b9cb" stroke-width="1" stroke-linecap="round"/><path d="M329.45,300.75L329.45,466.75" fill="none" stroke="#5e82a3" stroke-width="1" stroke-linecap="round"/><g opacity=".14"><path d="M307.85,337.35L329.45,347.75" fill="none" stroke="#94daf2" stroke-width="10" stroke-linecap="round"/><path d="M329.45,347.75L361.85,332.15" fill="none" stroke="#94daf2" stroke-width="8" stroke-linecap="round"/></g><path d="M307.85,337.35L329.45,347.75" fill="none" stroke="#94daf2" stroke-width="2" stroke-linecap="round"/><path d="M329.45,347.75L361.85,332.15" fill="none" stroke="#94daf2" stroke-width="1.5" stroke-linecap="round"/><polygon points="72.94999999999999,378.35 108.04999999999998,395.25 108.04999999999998,296.25 72.94999999999999,279.35" fill="url(#azure-sql-0-material-354f60)" stroke="#172d3d" stroke-width="1" stroke-linejoin="round" data-material="#354f60"/><polygon points="201.2,350.4 108.04999999999998,395.25 108.04999999999998,296.25 201.2,251.39999999999998" fill="url(#azure-sql-0-material-1b3448)" stroke="#172d3d" stroke-width="1" stroke-linejoin="round" data-material="#1b3448"/><polygon points="166.1,234.5 201.2,251.39999999999998 108.04999999999998,296.25 72.94999999999999,279.35" fill="url(#azure-sql-0-material-7b929e)" stroke="#172d3d" stroke-width="1" stroke-linejoin="round" data-material="#7b929e"/><path d="M72.94999999999999,279.35L108.04999999999998,296.25" fill="none" stroke="#94abb7" stroke-width="1.2" stroke-linecap="round"/><path d="M108.04999999999998,296.25L201.2,251.39999999999998" fill="none" stroke="#8097a3" stroke-width="1" stroke-linecap="round"/><path d="M108.04999999999998,296.25L108.04999999999998,395.25" fill="none" stroke="#445e6f" stroke-width="1" stroke-linecap="round"/><polygon points="81.04999999999998,279.35 108.04999999999998,292.35 108.04999999999998,288.35 81.04999999999998,275.35" fill="url(#azure-sql-0-material-354f60)" stroke="#172d3d" stroke-width="1" stroke-linejoin="round" data-material="#354f60"/><polygon points="193.1,251.39999999999998 108.04999999999998,292.35 108.04999999999998,288.35 193.1,247.39999999999998" fill="url(#azure-sql-0-material-1b3448)" stroke="#172d3d" stroke-width="1" stroke-linejoin="round" data-material="#1b3448"/><polygon points="166.1,234.39999999999998 193.1,247.39999999999998 108.04999999999998,288.35 81.04999999999998,275.35" fill="url(#azure-sql-0-material-8c9da5)" stroke="#172d3d" stroke-width="1" stroke-linejoin="round" data-material="#8c9da5"/><path d="M81.04999999999998,275.35L108.04999999999998,288.35" fill="none" stroke="#a5b6be" stroke-width="1.2" stroke-linecap="round"/><path d="M108.04999999999998,288.35L193.1,247.39999999999998" fill="none" stroke="#91a2aa" stroke-width="1" stroke-linecap="round"/><path d="M108.04999999999998,288.35L108.04999999999998,292.35" fill="none" stroke="#445e6f" stroke-width="1" stroke-linecap="round"/><path d="M195.8,346L195.8,262" fill="none" stroke="#162b3c" stroke-width="2" stroke-linecap="round"/><path d="M113.44999999999999,385.65L113.44999999999999,301.65" fill="none" stroke="#708996" stroke-width="1" stroke-linecap="round"/><path d="M192.01999999999998,343.08L117.76999999999998,378.83" fill="none" stroke="#112736" stroke-width="1.5" stroke-linecap="round"/><path d="M192.01999999999998,338.08L117.76999999999998,373.83" fill="none" stroke="#112736" stroke-width="1.5" stroke-linecap="round"/><path d="M192.01999999999998,333.08L117.76999999999998,368.83" fill="none" stroke="#112736" stroke-width="1.5" stroke-linecap="round"/><path d="M192.01999999999998,328.08L117.76999999999998,363.83" fill="none" stroke="#112736" stroke-width="1.5" stroke-linecap="round"/><path d="M192.01999999999998,323.08L117.76999999999998,358.83" fill="none" stroke="#112736" stroke-width="1.5" stroke-linecap="round"/><path d="M192.01999999999998,318.08L117.76999999999998,353.83" fill="none" stroke="#112736" stroke-width="1.5" stroke-linecap="round"/><path d="M192.01999999999998,313.08L117.76999999999998,348.83" fill="none" stroke="#112736" stroke-width="1.5" stroke-linecap="round"/><path d="M192.01999999999998,308.08L117.76999999999998,343.83" fill="none" stroke="#112736" stroke-width="1.5" stroke-linecap="round"/><polygon points="78.08000000000001,373.08 102.38,384.78000000000003 102.38,301.78000000000003 78.08000000000001,290.08" fill="url(#azure-sql-0-material-101f2d)" stroke="#172d3d" stroke-width="1" stroke-linejoin="round" data-material="#101f2d"/><path d="M81.725,369.225L97.92499999999998,377.025" fill="none" stroke="#5b7380" stroke-width="1.5" stroke-linecap="round"/><path d="M93.19999999999999,372.4L98.6,375" fill="none" stroke="#6be4eb" stroke-width="2.5" stroke-linecap="round"/><path d="M82.39999999999998,368.2L86.44999999999999,370.15" fill="none" stroke="#81929b" stroke-width="0.7" stroke-linecap="round"/><path d="M81.725,359.0821428571429L97.92499999999998,366.88214285714287" fill="none" stroke="#5b7380" stroke-width="1.5" stroke-linecap="round"/><path d="M93.19999999999999,362.25714285714287L98.6,364.8571428571429" fill="none" stroke="#6be4eb" stroke-width="2.5" stroke-linecap="round"/><path d="M82.39999999999998,358.0571428571428L86.44999999999999,360.00714285714287" fill="none" stroke="#81929b" stroke-width="0.7" stroke-linecap="round"/><path d="M81.725,348.93928571428575L97.92499999999998,356.7392857142857" fill="none" stroke="#5b7380" stroke-width="1.5" stroke-linecap="round"/><path d="M93.19999999999999,352.1142857142857L98.6,354.7142857142857" fill="none" stroke="#6be4eb" stroke-width="2.5" stroke-linecap="round"/><path d="M82.39999999999998,347.9142857142857L86.44999999999999,349.8642857142857" fill="none" stroke="#81929b" stroke-width="0.7" stroke-linecap="round"/><path d="M81.725,338.7964285714286L97.92499999999998,346.59642857142853" fill="none" stroke="#5b7380" stroke-width="1.5" stroke-linecap="round"/><path d="M93.19999999999999,341.97142857142853L98.6,344.57142857142856" fill="none" stroke="#6be4eb" stroke-width="2.5" stroke-linecap="round"/><path d="M82.39999999999998,337.77142857142854L86.44999999999999,339.72142857142853" fill="none" stroke="#81929b" stroke-width="0.7" stroke-linecap="round"/><path d="M81.725,328.65357142857147L97.92499999999998,336.4535714285714" fill="none" stroke="#5b7380" stroke-width="1.5" stroke-linecap="round"/><path d="M93.19999999999999,331.8285714285714L98.6,334.42857142857144" fill="none" stroke="#6be4eb" stroke-width="2.5" stroke-linecap="round"/><path d="M82.39999999999998,327.62857142857143L86.44999999999999,329.5785714285714" fill="none" stroke="#81929b" stroke-width="0.7" stroke-linecap="round"/><path d="M81.725,318.5107142857143L97.92499999999998,326.31071428571425" fill="none" stroke="#5b7380" stroke-width="1.5" stroke-linecap="round"/><path d="M93.19999999999999,321.68571428571425L98.6,324.2857142857143" fill="none" stroke="#6be4eb" stroke-width="2.5" stroke-linecap="round"/><path d="M82.39999999999998,317.48571428571427L86.44999999999999,319.43571428571425" fill="none" stroke="#81929b" stroke-width="0.7" stroke-linecap="round"/><path d="M81.725,308.36785714285713L97.92499999999998,316.1678571428571" fill="none" stroke="#5b7380" stroke-width="1.5" stroke-linecap="round"/><path d="M93.19999999999999,311.5428571428571L98.6,314.1428571428571" fill="none" stroke="#6be4eb" stroke-width="2.5" stroke-linecap="round"/><path d="M82.39999999999998,307.34285714285716L86.44999999999999,309.2928571428571" fill="none" stroke="#81929b" stroke-width="0.7" stroke-linecap="round"/><circle cx="76.32499999999999" cy="375.625" r="1.2" fill="#b4c2c5"/><circle cx="76.32499999999999" cy="286.625" r="1.2" fill="#b4c2c5"/><circle cx="103.32499999999999" cy="388.625" r="1.2" fill="#b4c2c5"/><circle cx="103.32499999999999" cy="299.625" r="1.2" fill="#b4c2c5"/><path d="M166.1,238.3L89.14999999999998,275.35" fill="none" stroke="#263e50" stroke-width="2" stroke-linecap="round"/><path d="M169.24999999999997,239.81666666666666L92.29999999999995,276.8666666666667" fill="none" stroke="#263e50" stroke-width="2" stroke-linecap="round"/><path d="M172.4,241.33333333333331L95.45000000000002,278.3833333333333" fill="none" stroke="#263e50" stroke-width="2" stroke-linecap="round"/><path d="M175.54999999999998,242.85000000000002L98.6,279.9" fill="none" stroke="#263e50" stroke-width="2" stroke-linecap="round"/><path d="M178.7,244.36666666666667L101.74999999999997,281.4166666666667" fill="none" stroke="#263e50" stroke-width="2" stroke-linecap="round"/><path d="M181.85,245.88333333333333L104.9,282.93333333333334" fill="none" stroke="#263e50" stroke-width="2" stroke-linecap="round"/><polygon points="345.65,451.15 380.75,468.05 380.75,357.05 345.65,340.15" fill="url(#azure-sql-0-material-354f60)" stroke="#172d3d" stroke-width="1" stroke-linejoin="round" data-material="#354f60"/><polygon points="503.6,408.9 380.75,468.05 380.75,357.05 503.6,297.9" fill="url(#azure-sql-0-material-1b3448)" stroke="#172d3d" stroke-width="1" stroke-linejoin="round" data-material="#1b3448"/><polygon points="468.5,281 503.6,297.9 380.75,357.05 345.65,340.15" fill="url(#azure-sql-0-material-7b929e)" stroke="#172d3d" stroke-width="1" stroke-linejoin="round" data-material="#7b929e"/><path d="M345.65,340.15L380.75,357.05" fill="none" stroke="#94abb7" stroke-width="1.2" stroke-linecap="round"/><path d="M380.75,357.05L503.6,297.9" fill="none" stroke="#8097a3" stroke-width="1" stroke-linecap="round"/><path d="M380.75,357.05L380.75,468.05" fill="none" stroke="#445e6f" stroke-width="1" stroke-linecap="round"/><polygon points="353.75,340.15 380.75,353.15 380.75,349.15 353.75,336.15" fill="url(#azure-sql-0-material-354f60)" stroke="#172d3d" stroke-width="1" stroke-linejoin="round" data-material="#354f60"/><polygon points="495.5,297.9 380.75,353.15 380.75,349.15 495.5,293.9" fill="url(#azure-sql-0-material-1b3448)" stroke="#172d3d" stroke-width="1" stroke-linejoin="round" data-material="#1b3448"/><polygon points="468.5,280.9 495.5,293.9 380.75,349.15 353.75,336.15" fill="url(#azure-sql-0-material-8c9da5)" stroke="#172d3d" stroke-width="1" stroke-linejoin="round" data-material="#8c9da5"/><path d="M353.75,336.15L380.75,349.15" fill="none" stroke="#a5b6be" stroke-width="1.2" stroke-linecap="round"/><path d="M380.75,349.15L495.5,293.9" fill="none" stroke="#91a2aa" stroke-width="1" stroke-linecap="round"/><path d="M380.75,349.15L380.75,353.15" fill="none" stroke="#445e6f" stroke-width="1" stroke-linecap="round"/><path d="M498.20000000000005,404.5L498.20000000000005,308.5" fill="none" stroke="#162b3c" stroke-width="2" stroke-linecap="round"/><path d="M386.15,458.45L386.15,362.45" fill="none" stroke="#708996" stroke-width="1" stroke-linecap="round"/><path d="M494.41999999999996,401.58L390.47,451.63" fill="none" stroke="#112736" stroke-width="1.5" stroke-linecap="round"/><path d="M494.41999999999996,396.58L390.47,446.63" fill="none" stroke="#112736" stroke-width="1.5" stroke-linecap="round"/><path d="M494.41999999999996,391.58L390.47,441.63" fill="none" stroke="#112736" stroke-width="1.5" stroke-linecap="round"/><path d="M494.41999999999996,386.58L390.47,436.63" fill="none" stroke="#112736" stroke-width="1.5" stroke-linecap="round"/><path d="M494.41999999999996,381.58L390.47,431.63" fill="none" stroke="#112736" stroke-width="1.5" stroke-linecap="round"/><path d="M494.41999999999996,376.58L390.47,426.63" fill="none" stroke="#112736" stroke-width="1.5" stroke-linecap="round"/><path d="M494.41999999999996,371.58L390.47,421.63" fill="none" stroke="#112736" stroke-width="1.5" stroke-linecap="round"/><path d="M494.41999999999996,366.58L390.47,416.63" fill="none" stroke="#112736" stroke-width="1.5" stroke-linecap="round"/><polygon points="350.78,445.88 375.08,457.58 375.08,362.58 350.78,350.88" fill="url(#azure-sql-0-material-101f2d)" stroke="#172d3d" stroke-width="1" stroke-linejoin="round" data-material="#101f2d"/><path d="M354.425,442.025L370.625,449.825" fill="none" stroke="#5b7380" stroke-width="1.5" stroke-linecap="round"/><path d="M365.9,445.2L371.3,447.8" fill="none" stroke="#efbb69" stroke-width="2.5" stroke-linecap="round"/><path d="M355.1,441L359.15,442.95" fill="none" stroke="#81929b" stroke-width="0.7" stroke-linecap="round"/><path d="M354.425,430.1678571428571L370.625,437.96785714285716" fill="none" stroke="#5b7380" stroke-width="1.5" stroke-linecap="round"/><path d="M365.9,433.34285714285716L371.3,435.9428571428572" fill="none" stroke="#efbb69" stroke-width="2.5" stroke-linecap="round"/><path d="M355.1,429.1428571428571L359.15,431.09285714285716" fill="none" stroke="#81929b" stroke-width="0.7" stroke-linecap="round"/><path d="M354.425,418.31071428571425L370.625,426.11071428571427" fill="none" stroke="#5b7380" stroke-width="1.5" stroke-linecap="round"/><path d="M365.9,421.48571428571427L371.3,424.0857142857143" fill="none" stroke="#efbb69" stroke-width="2.5" stroke-linecap="round"/><path d="M355.1,417.2857142857143L359.15,419.23571428571427" fill="none" stroke="#81929b" stroke-width="0.7" stroke-linecap="round"/><path d="M354.425,406.4535714285714L370.625,414.25357142857143" fill="none" stroke="#5b7380" stroke-width="1.5" stroke-linecap="round"/><path d="M365.9,409.62857142857143L371.3,412.22857142857146" fill="none" stroke="#efbb69" stroke-width="2.5" stroke-linecap="round"/><path d="M355.1,405.42857142857144L359.15,407.37857142857143" fill="none" stroke="#81929b" stroke-width="0.7" stroke-linecap="round"/><path d="M354.425,394.59642857142853L370.625,402.39642857142854" fill="none" stroke="#5b7380" stroke-width="1.5" stroke-linecap="round"/><path d="M365.9,397.77142857142854L371.3,400.37142857142857" fill="none" stroke="#efbb69" stroke-width="2.5" stroke-linecap="round"/><path d="M355.1,393.57142857142856L359.15,395.52142857142854" fill="none" stroke="#81929b" stroke-width="0.7" stroke-linecap="round"/><path d="M354.425,382.7392857142857L370.625,390.5392857142857" fill="none" stroke="#5b7380" stroke-width="1.5" stroke-linecap="round"/><path d="M365.9,385.9142857142857L371.3,388.51428571428573" fill="none" stroke="#efbb69" stroke-width="2.5" stroke-linecap="round"/><path d="M355.1,381.7142857142857L359.15,383.6642857142857" fill="none" stroke="#81929b" stroke-width="0.7" stroke-linecap="round"/><path d="M354.425,370.88214285714287L370.625,378.6821428571428" fill="none" stroke="#5b7380" stroke-width="1.5" stroke-linecap="round"/><path d="M365.9,374.0571428571428L371.3,376.65714285714284" fill="none" stroke="#efbb69" stroke-width="2.5" stroke-linecap="round"/><path d="M355.1,369.8571428571429L359.15,371.8071428571428" fill="none" stroke="#81929b" stroke-width="0.7" stroke-linecap="round"/><circle cx="349.025" cy="448.425" r="1.2" fill="#b4c2c5"/><circle cx="349.025" cy="347.425" r="1.2" fill="#b4c2c5"/><circle cx="376.025" cy="461.425" r="1.2" fill="#b4c2c5"/><circle cx="376.025" cy="360.425" r="1.2" fill="#b4c2c5"/><path d="M468.5,284.8L361.85,336.15" fill="none" stroke="#263e50" stroke-width="2" stroke-linecap="round"/><path d="M471.65,286.31666666666666L365,337.6666666666667" fill="none" stroke="#263e50" stroke-width="2" stroke-linecap="round"/><path d="M474.8,287.8333333333333L368.15000000000003,339.18333333333334" fill="none" stroke="#263e50" stroke-width="2" stroke-linecap="round"/><path d="M477.95000000000005,289.35L371.3,340.7" fill="none" stroke="#263e50" stroke-width="2" stroke-linecap="round"/><path d="M481.1,290.8666666666667L374.45,342.2166666666667" fill="none" stroke="#263e50" stroke-width="2" stroke-linecap="round"/><path d="M484.25,292.3833333333333L377.6,343.73333333333335" fill="none" stroke="#263e50" stroke-width="2" stroke-linecap="round"/><path d="M446.9,365.6L446.9,250.60000000000002" fill="none" stroke="#adc0c6" stroke-width="3" stroke-linecap="round"/><path d="M399.65,388.35L399.65,273.35" fill="none" stroke="#adc0c6" stroke-width="3" stroke-linecap="round"/><path d="M352.4,411.1L352.4,296.1" fill="none" stroke="#adc0c6" stroke-width="3" stroke-linecap="round"/></g></svg>