<svg xmlns="http://www.w3.org/2000/svg" width="640" height="640" viewBox="0 0 640 640"><defs><linearGradient id="cache-boot-material-071823" x1="0" y1="0" x2=".8" y2="1"><stop stop-color="#1e2f3a"/><stop offset=".18" stop-color="#0e1f2a"/><stop offset=".65" stop-color="#071823"/><stop offset="1" stop-color="#00030e"/></linearGradient><linearGradient id="cache-boot-material-182d40" x1="0" y1="0" x2=".8" y2="1"><stop stop-color="#2f4457"/><stop offset=".18" stop-color="#1f3447"/><stop offset=".65" stop-color="#182d40"/><stop offset="1" stop-color="#03182b"/></linearGradient><linearGradient id="cache-boot-material-102335" x1="0" y1="0" x2=".8" y2="1"><stop stop-color="#273a4c"/><stop offset=".18" stop-color="#172a3c"/><stop offset=".65" stop-color="#102335"/><stop offset="1" stop-color="#000e20"/></linearGradient><linearGradient id="cache-boot-material-3a5363" x1="0" y1="0" x2=".8" y2="1"><stop stop-color="#516a7a"/><stop offset=".18" stop-color="#415a6a"/><stop offset=".65" stop-color="#3a5363"/><stop offset="1" stop-color="#253e4e"/></linearGradient><linearGradient id="cache-boot-material-2d4657" x1="0" y1="0" x2=".8" y2="1"><stop stop-color="#445d6e"/><stop offset=".18" stop-color="#344d5e"/><stop offset=".65" stop-color="#2d4657"/><stop offset="1" stop-color="#183142"/></linearGradient><linearGradient id="cache-boot-material-233b4c" x1="0" y1="0" x2=".8" y2="1"><stop stop-color="#3a5263"/><stop offset=".18" stop-color="#2a4253"/><stop offset=".65" stop-color="#233b4c"/><stop offset="1" stop-color="#0e2637"/></linearGradient><linearGradient id="cache-boot-material-526a78" x1="0" y1="0" x2=".8" y2="1"><stop stop-color="#69818f"/><stop offset=".18" stop-color="#59717f"/><stop offset=".65" stop-color="#526a78"/><stop offset="1" stop-color="#3d5563"/></linearGradient><linearGradient id="cache-boot-material-635c4c" x1="0" y1="0" x2=".8" y2="1"><stop stop-color="#7a7363"/><stop offset=".18" stop-color="#6a6353"/><stop offset=".65" stop-color="#635c4c"/><stop offset="1" stop-color="#4e4737"/></linearGradient><linearGradient id="cache-boot-material-45473f" x1="0" y1="0" x2=".8" y2="1"><stop stop-color="#5c5e56"/><stop offset=".18" stop-color="#4c4e46"/><stop offset=".65" stop-color="#45473f"/><stop offset="1" stop-color="#30322a"/></linearGradient><linearGradient id="cache-boot-material-aa9574" x1="0" y1="0" x2=".8" y2="1"><stop stop-color="#c1ac8b"/><stop offset=".18" stop-color="#b19c7b"/><stop offset=".65" stop-color="#aa9574"/><stop offset="1" stop-color="#95805f"/></linearGradient><linearGradient id="cache-boot-material-314a53" x1="0" y1="0" x2=".8" y2="1"><stop stop-color="#48616a"/><stop offset=".18" stop-color="#38515a"/><stop offset=".65" stop-color="#314a53"/><stop offset="1" stop-color="#1c353e"/></linearGradient><linearGradient id="cache-boot-material-203943" x1="0" y1="0" x2=".8" y2="1"><stop stop-color="#37505a"/><stop offset=".18" stop-color="#27404a"/><stop offset=".65" stop-color="#203943"/><stop offset="1" stop-color="#0b242e"/></linearGradient><linearGradient id="cache-boot-material-697f83" x1="0" y1="0" x2=".8" y2="1"><stop stop-color="#80969a"/><stop offset=".18" stop-color="#70868a"/><stop offset=".65" stop-color="#697f83"/><stop offset="1" stop-color="#546a6e"/></linearGradient><linearGradient id="cache-boot-material-354f60" x1="0" y1="0" x2=".8" y2="1"><stop stop-color="#4c6677"/><stop offset=".18" stop-color="#3c5667"/><stop offset=".65" stop-color="#354f60"/><stop offset="1" stop-color="#203a4b"/></linearGradient><linearGradient id="cache-boot-material-1b3448" x1="0" y1="0" x2=".8" y2="1"><stop stop-color="#324b5f"/><stop offset=".18" stop-color="#223b4f"/><stop offset=".65" stop-color="#1b3448"/><stop offset="1" stop-color="#061f33"/></linearGradient><linearGradient id="cache-boot-material-efbb69" x1="0" y1="0" x2=".8" y2="1"><stop stop-color="#ffd280"/><stop offset=".18" stop-color="#f6c270"/><stop offset=".65" stop-color="#efbb69"/><stop offset="1" stop-color="#daa654"/></linearGradient><linearGradient id="cache-boot-material-44565d" x1="0" y1="0" x2=".8" y2="1"><stop stop-color="#5b6d74"/><stop offset=".18" stop-color="#4b5d64"/><stop offset=".65" stop-color="#44565d"/><stop offset="1" stop-color="#2f4148"/></linearGradient></defs><g><polygon points="320,262.29999999999995 617,405.3 320,548.3 23,405.3" fill="url(#cache-boot-material-071823)" stroke="#172d3d" stroke-width="1" stroke-linejoin="round" data-material="#071823"/><polygon points="50,398 320,528 320,515 50,385" fill="url(#cache-boot-material-182d40)" stroke="#172d3d" stroke-width="1" stroke-linejoin="round" data-material="#182d40"/><polygon points="590,398 320,528 320,515 590,385" fill="url(#cache-boot-material-102335)" stroke="#172d3d" stroke-width="1" stroke-linejoin="round" data-material="#102335"/><polygon points="320,255 590,385 320,515 50,385" fill="url(#cache-boot-material-3a5363)" stroke="#172d3d" stroke-width="1" stroke-linejoin="round" data-material="#3a5363"/><path d="M50,385L320,515" fill="none" stroke="#536c7c" stroke-width="1.2" stroke-linecap="round"/><path d="M320,515L590,385" fill="none" stroke="#3f5868" stroke-width="1" stroke-linecap="round"/><path d="M320,515L320,528" fill="none" stroke="#273c4f" stroke-width="1" stroke-linecap="round"/><polygon points="66.19999999999999,385 320,507.20000000000005 320,501.20000000000005 66.19999999999999,379" fill="url(#cache-boot-material-2d4657)" stroke="#172d3d" stroke-width="1" stroke-linejoin="round" data-material="#2d4657"/><polygon points="573.8,385 320,507.20000000000005 320,501.20000000000005 573.8,379" fill="url(#cache-boot-material-233b4c)" stroke="#172d3d" stroke-width="1" stroke-linejoin="round" data-material="#233b4c"/><polygon points="320,256.8 573.8,379 320,501.20000000000005 66.19999999999999,379" fill="url(#cache-boot-material-526a78)" stroke="#172d3d" stroke-width="1" stroke-linejoin="round" data-material="#526a78"/><path d="M66.19999999999999,379L320,501.20000000000005" fill="none" stroke="#6b8391" stroke-width="1.2" stroke-linecap="round"/><path d="M320,501.20000000000005L573.8,379" fill="none" stroke="#576f7d" stroke-width="1" stroke-linecap="round"/><path d="M320,501.20000000000005L320,507.20000000000005" fill="none" stroke="#3c5566" stroke-width="1" stroke-linecap="round"/><polygon points="320,298.4 325.4,301 325.4,213 320,210.39999999999998" fill="url(#cache-boot-material-635c4c)" stroke="#172d3d" stroke-width="1" stroke-linejoin="round" data-material="#635c4c"/><polygon points="330.8,298.4 325.4,301 325.4,213 330.8,210.39999999999998" fill="url(#cache-boot-material-45473f)" stroke="#172d3d" stroke-width="1" stroke-linejoin="round" data-material="#45473f"/><polygon points="325.4,207.8 330.8,210.39999999999998 325.4,213 320,210.39999999999998" fill="url(#cache-boot-material-aa9574)" stroke="#172d3d" stroke-width="1" stroke-linejoin="round" data-material="#aa9574"/><path d="M320,210.39999999999998L325.4,213" fill="none" stroke="#c3ae8d" stroke-width="1.2" stroke-linecap="round"/><path d="M325.4,213L330.8,210.39999999999998" fill="none" stroke="#af9a79" stroke-width="1" stroke-linecap="round"/><path d="M325.4,213L325.4,301" fill="none" stroke="#726b5b" stroke-width="1" stroke-linecap="round"/><polygon points="484.70000000000005,377.7 490.1,380.3 490.1,292.3 484.70000000000005,289.7" fill="url(#cache-boot-material-635c4c)" stroke="#172d3d" stroke-width="1" stroke-linejoin="round" data-material="#635c4c"/><polygon points="495.5,377.7 490.1,380.3 490.1,292.3 495.5,289.7" fill="url(#cache-boot-material-45473f)" stroke="#172d3d" stroke-width="1" stroke-linejoin="round" data-material="#45473f"/><polygon points="490.1,287.1 495.5,289.7 490.1,292.3 484.70000000000005,289.7" fill="url(#cache-boot-material-aa9574)" stroke="#172d3d" stroke-width="1" stroke-linejoin="round" data-material="#aa9574"/><path d="M484.70000000000005,289.7L490.1,292.3" fill="none" stroke="#c3ae8d" stroke-width="1.2" stroke-linecap="round"/><path d="M490.1,292.3L495.5,289.7" fill="none" stroke="#af9a79" stroke-width="1" stroke-linecap="round"/><path d="M490.1,292.3L490.1,380.3" fill="none" stroke="#726b5b" stroke-width="1" stroke-linecap="round"/><polygon points="144.5,382.9 149.89999999999998,385.5 149.89999999999998,297.5 144.5,294.9" fill="url(#cache-boot-material-635c4c)" stroke="#172d3d" stroke-width="1" stroke-linejoin="round" data-material="#635c4c"/><polygon points="155.29999999999998,382.9 149.89999999999998,385.5 149.89999999999998,297.5 155.29999999999998,294.9" fill="url(#cache-boot-material-45473f)" stroke="#172d3d" stroke-width="1" stroke-linejoin="round" data-material="#45473f"/><polygon points="149.89999999999998,292.3 155.29999999999998,294.9 149.89999999999998,297.5 144.5,294.9" fill="url(#cache-boot-material-aa9574)" stroke="#172d3d" stroke-width="1" stroke-linejoin="round" data-material="#aa9574"/><path d="M144.5,294.9L149.89999999999998,297.5" fill="none" stroke="#c3ae8d" stroke-width="1.2" stroke-linecap="round"/><path d="M149.89999999999998,297.5L155.29999999999998,294.9" fill="none" stroke="#af9a79" stroke-width="1" stroke-linecap="round"/><path d="M149.89999999999998,297.5L149.89999999999998,385.5" fill="none" stroke="#726b5b" stroke-width="1" stroke-linecap="round"/><polygon points="309.2,462.2 314.6,464.8 314.6,376.8 309.2,374.2" fill="url(#cache-boot-material-635c4c)" stroke="#172d3d" stroke-width="1" stroke-linejoin="round" data-material="#635c4c"/><polygon points="320,462.2 314.6,464.8 314.6,376.8 320,374.2" fill="url(#cache-boot-material-45473f)" stroke="#172d3d" stroke-width="1" stroke-linejoin="round" data-material="#45473f"/><polygon points="314.6,371.6 320,374.2 314.6,376.8 309.2,374.2" fill="url(#cache-boot-material-aa9574)" stroke="#172d3d" stroke-width="1" stroke-linejoin="round" data-material="#aa9574"/><path d="M309.2,374.2L314.6,376.8" fill="none" stroke="#c3ae8d" stroke-width="1.2" stroke-linecap="round"/><path d="M314.6,376.8L320,374.2" fill="none" stroke="#af9a79" stroke-width="1" stroke-linecap="round"/><path d="M314.6,376.8L314.6,464.8" fill="none" stroke="#726b5b" stroke-width="1" stroke-linecap="round"/><path d="M325.4,205.8L495.5,287.7" fill="none" stroke="#efbb69" stroke-width="3" stroke-linecap="round"/><path d="M495.5,287.7L314.6,374.8" fill="none" stroke="#efbb69" stroke-width="3" stroke-linecap="round"/><path d="M314.6,374.8L144.5,292.9" fill="none" stroke="#efbb69" stroke-width="3" stroke-linecap="round"/><path d="M144.5,379.9L314.6,374.8" fill="none" stroke="#7a7464" stroke-width="2" stroke-linecap="round"/><polygon points="297.05,317.85 442.85,388.05 442.85,334.05 297.05,263.85" fill="url(#cache-boot-material-314a53)" stroke="#172d3d" stroke-width="1" stroke-linejoin="round" data-material="#314a53"/><polygon points="460.4,379.6 442.85,388.05 442.85,334.05 460.4,325.6" fill="url(#cache-boot-material-203943)" stroke="#172d3d" stroke-width="1" stroke-linejoin="round" data-material="#203943"/><polygon points="314.6,255.39999999999998 460.4,325.6 442.85,334.05 297.05,263.85" fill="url(#cache-boot-material-697f83)" stroke="#172d3d" stroke-width="1" stroke-linejoin="round" data-material="#697f83"/><path d="M297.05,263.85L442.85,334.05" fill="none" stroke="#82989c" stroke-width="1.2" stroke-linecap="round"/><path d="M442.85,334.05L460.4,325.6" fill="none" stroke="#6e8488" stroke-width="1" stroke-linecap="round"/><path d="M442.85,334.05L442.85,388.05" fill="none" stroke="#405962" stroke-width="1" stroke-linecap="round"/><polygon points="259.25,336.05 405.05,406.25 405.05,352.25 259.25,282.05" fill="url(#cache-boot-material-314a53)" stroke="#172d3d" stroke-width="1" stroke-linejoin="round" data-material="#314a53"/><polygon points="422.6,397.8 405.05,406.25 405.05,352.25 422.6,343.8" fill="url(#cache-boot-material-203943)" stroke="#172d3d" stroke-width="1" stroke-linejoin="round" data-material="#203943"/><polygon points="276.8,273.6 422.6,343.8 405.05,352.25 259.25,282.05" fill="url(#cache-boot-material-697f83)" stroke="#172d3d" stroke-width="1" stroke-linejoin="round" data-material="#697f83"/><path d="M259.25,282.05L405.05,352.25" fill="none" stroke="#82989c" stroke-width="1.2" stroke-linecap="round"/><path d="M405.05,352.25L422.6,343.8" fill="none" stroke="#6e8488" stroke-width="1" stroke-linecap="round"/><path d="M405.05,352.25L405.05,406.25" fill="none" stroke="#405962" stroke-width="1" stroke-linecap="round"/><polygon points="221.45,354.25 367.25,424.45 367.25,370.45 221.45,300.25" fill="url(#cache-boot-material-314a53)" stroke="#172d3d" stroke-width="1" stroke-linejoin="round" data-material="#314a53"/><polygon points="384.8,416 367.25,424.45 367.25,370.45 384.8,362" fill="url(#cache-boot-material-203943)" stroke="#172d3d" stroke-width="1" stroke-linejoin="round" data-material="#203943"/><polygon points="239,291.8 384.8,362 367.25,370.45 221.45,300.25" fill="url(#cache-boot-material-697f83)" stroke="#172d3d" stroke-width="1" stroke-linejoin="round" data-material="#697f83"/><path d="M221.45,300.25L367.25,370.45" fill="none" stroke="#82989c" stroke-width="1.2" stroke-linecap="round"/><path d="M367.25,370.45L384.8,362" fill="none" stroke="#6e8488" stroke-width="1" stroke-linecap="round"/><path d="M367.25,370.45L367.25,424.45" fill="none" stroke="#405962" stroke-width="1" stroke-linecap="round"/><polygon points="183.64999999999998,372.45 329.45,442.65 329.45,388.65 183.64999999999998,318.45" fill="url(#cache-boot-material-314a53)" stroke="#172d3d" stroke-width="1" stroke-linejoin="round" data-material="#314a53"/><polygon points="347,434.2 329.45,442.65 329.45,388.65 347,380.2" fill="url(#cache-boot-material-203943)" stroke="#172d3d" stroke-width="1" stroke-linejoin="round" data-material="#203943"/><polygon points="201.2,310 347,380.2 329.45,388.65 183.64999999999998,318.45" fill="url(#cache-boot-material-697f83)" stroke="#172d3d" stroke-width="1" stroke-linejoin="round" data-material="#697f83"/><path d="M183.64999999999998,318.45L329.45,388.65" fill="none" stroke="#82989c" stroke-width="1.2" stroke-linecap="round"/><path d="M329.45,388.65L347,380.2" fill="none" stroke="#6e8488" stroke-width="1" stroke-linecap="round"/><path d="M329.45,388.65L329.45,442.65" fill="none" stroke="#405962" stroke-width="1" stroke-linecap="round"/><polygon points="155.29999999999998,397.8 171.5,405.6 171.5,402.6 155.29999999999998,394.8" fill="url(#cache-boot-material-354f60)" stroke="#172d3d" stroke-width="1" stroke-linejoin="round" data-material="#354f60"/><polygon points="178.25,402.35 171.5,405.6 171.5,402.6 178.25,399.35" fill="url(#cache-boot-material-1b3448)" stroke="#172d3d" stroke-width="1" stroke-linejoin="round" data-material="#1b3448"/><polygon points="162.04999999999998,391.55 178.25,399.35 171.5,402.6 155.29999999999998,394.8" fill="url(#cache-boot-material-efbb69)" stroke="#172d3d" stroke-width="1" stroke-linejoin="round" data-material="#efbb69"/><path d="M155.29999999999998,394.8L171.5,402.6" fill="none" stroke="#ffd482" stroke-width="1.2" stroke-linecap="round"/><path d="M171.5,402.6L178.25,399.35" fill="none" stroke="#f4c06e" stroke-width="1" stroke-linecap="round"/><path d="M171.5,402.6L171.5,405.6" fill="none" stroke="#445e6f" stroke-width="1" stroke-linecap="round"/><polygon points="189.04999999999998,414.05 205.25,421.85 205.25,418.85 189.04999999999998,411.05" fill="url(#cache-boot-material-354f60)" stroke="#172d3d" stroke-width="1" stroke-linejoin="round" data-material="#354f60"/><polygon points="212,418.6 205.25,421.85 205.25,418.85 212,415.6" fill="url(#cache-boot-material-1b3448)" stroke="#172d3d" stroke-width="1" stroke-linejoin="round" data-material="#1b3448"/><polygon points="195.8,407.8 212,415.6 205.25,418.85 189.04999999999998,411.05" fill="url(#cache-boot-material-efbb69)" stroke="#172d3d" stroke-width="1" stroke-linejoin="round" data-material="#efbb69"/><path d="M189.04999999999998,411.05L205.25,418.85" fill="none" stroke="#ffd482" stroke-width="1.2" stroke-linecap="round"/><path d="M205.25,418.85L212,415.6" fill="none" stroke="#f4c06e" stroke-width="1" stroke-linecap="round"/><path d="M205.25,418.85L205.25,421.85" fill="none" stroke="#445e6f" stroke-width="1" stroke-linecap="round"/><polygon points="222.8,430.3 239,438.1 239,435.1 222.8,427.3" fill="url(#cache-boot-material-354f60)" stroke="#172d3d" stroke-width="1" stroke-linejoin="round" data-material="#354f60"/><polygon points="245.75,434.85 239,438.1 239,435.1 245.75,431.85" fill="url(#cache-boot-material-1b3448)" stroke="#172d3d" stroke-width="1" stroke-linejoin="round" data-material="#1b3448"/><polygon points="229.55,424.05 245.75,431.85 239,435.1 222.8,427.3" fill="url(#cache-boot-material-efbb69)" stroke="#172d3d" stroke-width="1" stroke-linejoin="round" data-material="#efbb69"/><path d="M222.8,427.3L239,435.1" fill="none" stroke="#ffd482" stroke-width="1.2" stroke-linecap="round"/><path d="M239,435.1L245.75,431.85" fill="none" stroke="#f4c06e" stroke-width="1" stroke-linecap="round"/><path d="M239,435.1L239,438.1" fill="none" stroke="#445e6f" stroke-width="1" stroke-linecap="round"/><polygon points="256.55,446.55 272.75,454.35 272.75,451.35 256.55,443.55" fill="url(#cache-boot-material-354f60)" stroke="#172d3d" stroke-width="1" stroke-linejoin="round" data-material="#354f60"/><polygon points="279.5,451.1 272.75,454.35 272.75,451.35 279.5,448.1" fill="url(#cache-boot-material-1b3448)" stroke="#172d3d" stroke-width="1" stroke-linejoin="round" data-material="#1b3448"/><polygon points="263.3,440.3 279.5,448.1 272.75,451.35 256.55,443.55" fill="url(#cache-boot-material-44565d)" stroke="#172d3d" stroke-width="1" stroke-linejoin="round" data-material="#44565d"/><path d="M256.55,443.55L272.75,451.35" fill="none" stroke="#5d6f76" stroke-width="1.2" stroke-linecap="round"/><path d="M272.75,451.35L279.5,448.1" fill="none" stroke="#495b62" stroke-width="1" stroke-linecap="round"/><path d="M272.75,451.35L272.75,454.35" fill="none" stroke="#445e6f" stroke-width="1" stroke-linecap="round"/></g></svg>