<svg xmlns="http://www.w3.org/2000/svg" width="640" height="640" viewBox="0 0 640 640"><defs><linearGradient id="edge-frame-material-071823" x1="0" y1="0" x2=".8" y2="1"><stop stop-color="#1e2f3a"/><stop offset=".18" stop-color="#0e1f2a"/><stop offset=".65" stop-color="#071823"/><stop offset="1" stop-color="#00030e"/></linearGradient><linearGradient id="edge-frame-material-182d40" x1="0" y1="0" x2=".8" y2="1"><stop stop-color="#2f4457"/><stop offset=".18" stop-color="#1f3447"/><stop offset=".65" stop-color="#182d40"/><stop offset="1" stop-color="#03182b"/></linearGradient><linearGradient id="edge-frame-material-102335" x1="0" y1="0" x2=".8" y2="1"><stop stop-color="#273a4c"/><stop offset=".18" stop-color="#172a3c"/><stop offset=".65" stop-color="#102335"/><stop offset="1" stop-color="#000e20"/></linearGradient><linearGradient id="edge-frame-material-3a5363" x1="0" y1="0" x2=".8" y2="1"><stop stop-color="#516a7a"/><stop offset=".18" stop-color="#415a6a"/><stop offset=".65" stop-color="#3a5363"/><stop offset="1" stop-color="#253e4e"/></linearGradient><linearGradient id="edge-frame-material-2d4657" x1="0" y1="0" x2=".8" y2="1"><stop stop-color="#445d6e"/><stop offset=".18" stop-color="#344d5e"/><stop offset=".65" stop-color="#2d4657"/><stop offset="1" stop-color="#183142"/></linearGradient><linearGradient id="edge-frame-material-233b4c" x1="0" y1="0" x2=".8" y2="1"><stop stop-color="#3a5263"/><stop offset=".18" stop-color="#2a4253"/><stop offset=".65" stop-color="#233b4c"/><stop offset="1" stop-color="#0e2637"/></linearGradient><linearGradient id="edge-frame-material-526a78" x1="0" y1="0" x2=".8" y2="1"><stop stop-color="#69818f"/><stop offset=".18" stop-color="#59717f"/><stop offset=".65" stop-color="#526a78"/><stop offset="1" stop-color="#3d5563"/></linearGradient><linearGradient id="edge-frame-material-635c4c" x1="0" y1="0" x2=".8" y2="1"><stop stop-color="#7a7363"/><stop offset=".18" stop-color="#6a6353"/><stop offset=".65" stop-color="#635c4c"/><stop offset="1" stop-color="#4e4737"/></linearGradient><linearGradient id="edge-frame-material-45473f" x1="0" y1="0" x2=".8" y2="1"><stop stop-color="#5c5e56"/><stop offset=".18" stop-color="#4c4e46"/><stop offset=".65" stop-color="#45473f"/><stop offset="1" stop-color="#30322a"/></linearGradient><linearGradient id="edge-frame-material-aa9574" x1="0" y1="0" x2=".8" y2="1"><stop stop-color="#c1ac8b"/><stop offset=".18" stop-color="#b19c7b"/><stop offset=".65" stop-color="#aa9574"/><stop offset="1" stop-color="#95805f"/></linearGradient></defs><g><polygon points="320,262.29999999999995 617,405.3 320,548.3 23,405.3" fill="url(#edge-frame-material-071823)" stroke="#172d3d" stroke-width="1" stroke-linejoin="round" data-material="#071823"/><polygon points="50,398 320,528 320,515 50,385" fill="url(#edge-frame-material-182d40)" stroke="#172d3d" stroke-width="1" stroke-linejoin="round" data-material="#182d40"/><polygon points="590,398 320,528 320,515 590,385" fill="url(#edge-frame-material-102335)" stroke="#172d3d" stroke-width="1" stroke-linejoin="round" data-material="#102335"/><polygon points="320,255 590,385 320,515 50,385" fill="url(#edge-frame-material-3a5363)" stroke="#172d3d" stroke-width="1" stroke-linejoin="round" data-material="#3a5363"/><path d="M50,385L320,515" fill="none" stroke="#536c7c" stroke-width="1.2" stroke-linecap="round"/><path d="M320,515L590,385" fill="none" stroke="#3f5868" stroke-width="1" stroke-linecap="round"/><path d="M320,515L320,528" fill="none" stroke="#273c4f" stroke-width="1" stroke-linecap="round"/><polygon points="66.19999999999999,385 320,507.20000000000005 320,501.20000000000005 66.19999999999999,379" fill="url(#edge-frame-material-2d4657)" stroke="#172d3d" stroke-width="1" stroke-linejoin="round" data-material="#2d4657"/><polygon points="573.8,385 320,507.20000000000005 320,501.20000000000005 573.8,379" fill="url(#edge-frame-material-233b4c)" stroke="#172d3d" stroke-width="1" stroke-linejoin="round" data-material="#233b4c"/><polygon points="320,256.8 573.8,379 320,501.20000000000005 66.19999999999999,379" fill="url(#edge-frame-material-526a78)" stroke="#172d3d" stroke-width="1" stroke-linejoin="round" data-material="#526a78"/><path d="M66.19999999999999,379L320,501.20000000000005" fill="none" stroke="#6b8391" stroke-width="1.2" stroke-linecap="round"/><path d="M320,501.20000000000005L573.8,379" fill="none" stroke="#576f7d" stroke-width="1" stroke-linecap="round"/><path d="M320,501.20000000000005L320,507.20000000000005" fill="none" stroke="#3c5566" stroke-width="1" stroke-linecap="round"/><polygon points="320,298.4 325.4,301 325.4,148 320,145.39999999999998" fill="url(#edge-frame-material-635c4c)" stroke="#172d3d" stroke-width="1" stroke-linejoin="round" data-material="#635c4c"/><polygon points="330.8,298.4 325.4,301 325.4,148 330.8,145.39999999999998" fill="url(#edge-frame-material-45473f)" stroke="#172d3d" stroke-width="1" stroke-linejoin="round" data-material="#45473f"/><polygon points="325.4,142.8 330.8,145.39999999999998 325.4,148 320,145.39999999999998" fill="url(#edge-frame-material-aa9574)" stroke="#172d3d" stroke-width="1" stroke-linejoin="round" data-material="#aa9574"/><path d="M320,145.39999999999998L325.4,148" fill="none" stroke="#c3ae8d" stroke-width="1.2" stroke-linecap="round"/><path d="M325.4,148L330.8,145.39999999999998" fill="none" stroke="#af9a79" stroke-width="1" stroke-linecap="round"/><path d="M325.4,148L325.4,301" fill="none" stroke="#726b5b" stroke-width="1" stroke-linecap="round"/><polygon points="484.70000000000005,377.7 490.1,380.3 490.1,227.3 484.70000000000005,224.7" fill="url(#edge-frame-material-635c4c)" stroke="#172d3d" stroke-width="1" stroke-linejoin="round" data-material="#635c4c"/><polygon points="495.5,377.7 490.1,380.3 490.1,227.3 495.5,224.7" fill="url(#edge-frame-material-45473f)" stroke="#172d3d" stroke-width="1" stroke-linejoin="round" data-material="#45473f"/><polygon points="490.1,222.10000000000002 495.5,224.7 490.1,227.3 484.70000000000005,224.7" fill="url(#edge-frame-material-aa9574)" stroke="#172d3d" stroke-width="1" stroke-linejoin="round" data-material="#aa9574"/><path d="M484.70000000000005,224.7L490.1,227.3" fill="none" stroke="#c3ae8d" stroke-width="1.2" stroke-linecap="round"/><path d="M490.1,227.3L495.5,224.7" fill="none" stroke="#af9a79" stroke-width="1" stroke-linecap="round"/><path d="M490.1,227.3L490.1,380.3" fill="none" stroke="#726b5b" stroke-width="1" stroke-linecap="round"/><polygon points="144.5,382.9 149.89999999999998,385.5 149.89999999999998,232.5 144.5,229.89999999999998" fill="url(#edge-frame-material-635c4c)" stroke="#172d3d" stroke-width="1" stroke-linejoin="round" data-material="#635c4c"/><polygon points="155.29999999999998,382.9 149.89999999999998,385.5 149.89999999999998,232.5 155.29999999999998,229.89999999999998" fill="url(#edge-frame-material-45473f)" stroke="#172d3d" stroke-width="1" stroke-linejoin="round" data-material="#45473f"/><polygon points="149.89999999999998,227.3 155.29999999999998,229.89999999999998 149.89999999999998,232.5 144.5,229.89999999999998" fill="url(#edge-frame-material-aa9574)" stroke="#172d3d" stroke-width="1" stroke-linejoin="round" data-material="#aa9574"/><path d="M144.5,229.89999999999998L149.89999999999998,232.5" fill="none" stroke="#c3ae8d" stroke-width="1.2" stroke-linecap="round"/><path d="M149.89999999999998,232.5L155.29999999999998,229.89999999999998" fill="none" stroke="#af9a79" stroke-width="1" stroke-linecap="round"/><path d="M149.89999999999998,232.5L149.89999999999998,385.5" fill="none" stroke="#726b5b" stroke-width="1" stroke-linecap="round"/><polygon points="309.2,462.2 314.6,464.8 314.6,311.8 309.2,309.2" fill="url(#edge-frame-material-635c4c)" stroke="#172d3d" stroke-width="1" stroke-linejoin="round" data-material="#635c4c"/><polygon points="320,462.2 314.6,464.8 314.6,311.8 320,309.2" fill="url(#edge-frame-material-45473f)" stroke="#172d3d" stroke-width="1" stroke-linejoin="round" data-material="#45473f"/><polygon points="314.6,306.6 320,309.2 314.6,311.8 309.2,309.2" fill="url(#edge-frame-material-aa9574)" stroke="#172d3d" stroke-width="1" stroke-linejoin="round" data-material="#aa9574"/><path d="M309.2,309.2L314.6,311.8" fill="none" stroke="#c3ae8d" stroke-width="1.2" stroke-linecap="round"/><path d="M314.6,311.8L320,309.2" fill="none" stroke="#af9a79" stroke-width="1" stroke-linecap="round"/><path d="M314.6,311.8L314.6,464.8" fill="none" stroke="#726b5b" stroke-width="1" stroke-linecap="round"/><path d="M325.4,140.8L495.5,222.7" fill="none" stroke="#efbb69" stroke-width="3" stroke-linecap="round"/><path d="M495.5,222.7L314.6,309.8" fill="none" stroke="#efbb69" stroke-width="3" stroke-linecap="round"/><path d="M314.6,309.8L144.5,227.89999999999998" fill="none" stroke="#efbb69" stroke-width="3" stroke-linecap="round"/><path d="M144.5,379.9L314.6,309.8" fill="none" stroke="#7a7464" stroke-width="2" stroke-linecap="round"/></g></svg>