<svg xmlns="http://www.w3.org/2000/svg" width="640" height="640" viewBox="0 0 640 640"><defs><linearGradient id="env-raised-tile-material-21323e" x1="0" y1="0" x2=".8" y2="1"><stop stop-color="#384955"/><stop offset=".18" stop-color="#283945"/><stop offset=".65" stop-color="#21323e"/><stop offset="1" stop-color="#0c1d29"/></linearGradient><linearGradient id="env-raised-tile-material-152732" x1="0" y1="0" x2=".8" y2="1"><stop stop-color="#2c3e49"/><stop offset=".18" stop-color="#1c2e39"/><stop offset=".65" stop-color="#152732"/><stop offset="1" stop-color="#00121d"/></linearGradient><linearGradient id="env-raised-tile-material-455763" x1="0" y1="0" x2=".8" y2="1"><stop stop-color="#5c6e7a"/><stop offset=".18" stop-color="#4c5e6a"/><stop offset=".65" stop-color="#455763"/><stop offset="1" stop-color="#30424e"/></linearGradient><linearGradient id="env-raised-tile-material-344d5d" x1="0" y1="0" x2=".8" y2="1"><stop stop-color="#4b6474"/><stop offset=".18" stop-color="#3b5464"/><stop offset=".65" stop-color="#344d5d"/><stop offset="1" stop-color="#1f3848"/></linearGradient></defs><g><polygon points="158,398 320,476 320,467 158,389" fill="url(#env-raised-tile-material-21323e)" stroke="#172d3d" stroke-width="1" stroke-linejoin="round" data-material="#21323e"/><polygon points="482,398 320,476 320,467 482,389" fill="url(#env-raised-tile-material-152732)" stroke="#172d3d" stroke-width="1" stroke-linejoin="round" data-material="#152732"/><polygon points="320,311 482,389 320,467 158,389" fill="url(#env-raised-tile-material-455763)" stroke="#172d3d" stroke-width="1" stroke-linejoin="round" data-material="#455763"/><path d="M158,389L320,467" fill="none" stroke="#5e707c" stroke-width="1.2" stroke-linecap="round"/><path d="M320,467L482,389" fill="none" stroke="#4a5c68" stroke-width="1" stroke-linecap="round"/><path d="M320,467L320,476" fill="none" stroke="#30414d" stroke-width="1" stroke-linecap="round"/><polygon points="320,314.7 473.9,388.8 320,462.90000000000003 166.1,388.8" fill="url(#env-raised-tile-material-344d5d)" stroke="#567280" stroke-width="1" stroke-linejoin="round" data-material="#344d5d"/><path d="M317.3,321.7L322.7,324.3" fill="none" stroke="#84969b" stroke-width="1" stroke-linecap="round"/><path d="M452.3,386.7L457.70000000000005,389.3" fill="none" stroke="#84969b" stroke-width="1" stroke-linecap="round"/><path d="M182.29999999999998,386.7L187.7,389.3" fill="none" stroke="#84969b" stroke-width="1" stroke-linecap="round"/><path d="M317.3,451.7L322.7,454.3" fill="none" stroke="#84969b" stroke-width="1" stroke-linecap="round"/></g></svg>