<svg xmlns="http://www.w3.org/2000/svg" width="640" height="640" viewBox="0 0 640 640"><defs><linearGradient id="env-electrical-cabinet-material-21323e" x1="0" y1="0" x2=".8" y2="1"><stop stop-color="#384955"/><stop offset=".18" stop-color="#283945"/><stop offset=".65" stop-color="#21323e"/><stop offset="1" stop-color="#0c1d29"/></linearGradient><linearGradient id="env-electrical-cabinet-material-152732" x1="0" y1="0" x2=".8" y2="1"><stop stop-color="#2c3e49"/><stop offset=".18" stop-color="#1c2e39"/><stop offset=".65" stop-color="#152732"/><stop offset="1" stop-color="#00121d"/></linearGradient><linearGradient id="env-electrical-cabinet-material-455763" x1="0" y1="0" x2=".8" y2="1"><stop stop-color="#5c6e7a"/><stop offset=".18" stop-color="#4c5e6a"/><stop offset=".65" stop-color="#455763"/><stop offset="1" stop-color="#30424e"/></linearGradient><linearGradient id="env-electrical-cabinet-material-4f626e" x1="0" y1="0" x2=".8" y2="1"><stop stop-color="#667985"/><stop offset=".18" stop-color="#566975"/><stop offset=".65" stop-color="#4f626e"/><stop offset="1" stop-color="#3a4d59"/></linearGradient><linearGradient id="env-electrical-cabinet-material-2b414f" x1="0" y1="0" x2=".8" y2="1"><stop stop-color="#425866"/><stop offset=".18" stop-color="#324856"/><stop offset=".65" stop-color="#2b414f"/><stop offset="1" stop-color="#162c3a"/></linearGradient><linearGradient id="env-electrical-cabinet-material-889598" x1="0" y1="0" x2=".8" y2="1"><stop stop-color="#9facaf"/><stop offset=".18" stop-color="#8f9c9f"/><stop offset=".65" stop-color="#889598"/><stop offset="1" stop-color="#738083"/></linearGradient><linearGradient id="env-electrical-cabinet-material-394f5c" x1="0" y1="0" x2=".8" y2="1"><stop stop-color="#506673"/><stop offset=".18" stop-color="#405663"/><stop offset=".65" stop-color="#394f5c"/><stop offset="1" stop-color="#243a47"/></linearGradient><linearGradient id="env-electrical-cabinet-material-223948" x1="0" y1="0" x2=".8" y2="1"><stop stop-color="#39505f"/><stop offset=".18" stop-color="#29404f"/><stop offset=".65" stop-color="#223948"/><stop offset="1" stop-color="#0d2433"/></linearGradient><linearGradient id="env-electrical-cabinet-material-83949a" x1="0" y1="0" x2=".8" y2="1"><stop stop-color="#9aabb1"/><stop offset=".18" stop-color="#8a9ba1"/><stop offset=".65" stop-color="#83949a"/><stop offset="1" stop-color="#6e7f85"/></linearGradient></defs><g><polygon points="224.14999999999998,384.35 348.35,444.15 348.35,435.15 224.14999999999998,375.35" fill="url(#env-electrical-cabinet-material-21323e)" stroke="#172d3d" stroke-width="1" stroke-linejoin="round" data-material="#21323e"/><polygon points="415.85,411.65 348.35,444.15 348.35,435.15 415.85,402.65" fill="url(#env-electrical-cabinet-material-152732)" stroke="#172d3d" stroke-width="1" stroke-linejoin="round" data-material="#152732"/><polygon points="291.65,342.85 415.85,402.65 348.35,435.15 224.14999999999998,375.35" fill="url(#env-electrical-cabinet-material-455763)" stroke="#172d3d" stroke-width="1" stroke-linejoin="round" data-material="#455763"/><path d="M224.14999999999998,375.35L348.35,435.15" fill="none" stroke="#5e707c" stroke-width="1.2" stroke-linecap="round"/><path d="M348.35,435.15L415.85,402.65" fill="none" stroke="#4a5c68" stroke-width="1" stroke-linecap="round"/><path d="M348.35,435.15L348.35,444.15" fill="none" stroke="#30414d" stroke-width="1" stroke-linecap="round"/><polygon points="240.35,375.35 348.35,427.35 348.35,309.35 240.35,257.35" fill="url(#env-electrical-cabinet-material-4f626e)" stroke="#172d3d" stroke-width="1" stroke-linejoin="round" data-material="#4f626e"/><polygon points="399.65,402.65 348.35,427.35 348.35,309.35 399.65,284.65" fill="url(#env-electrical-cabinet-material-2b414f)" stroke="#172d3d" stroke-width="1" stroke-linejoin="round" data-material="#2b414f"/><polygon points="291.65,232.64999999999998 399.65,284.65 348.35,309.35 240.35,257.35" fill="url(#env-electrical-cabinet-material-889598)" stroke="#172d3d" stroke-width="1" stroke-linejoin="round" data-material="#889598"/><path d="M240.35,257.35L348.35,309.35" fill="none" stroke="#a1aeb1" stroke-width="1.2" stroke-linecap="round"/><path d="M348.35,309.35L399.65,284.65" fill="none" stroke="#8d9a9d" stroke-width="1" stroke-linecap="round"/><path d="M348.35,309.35L348.35,427.35" fill="none" stroke="#5e717d" stroke-width="1" stroke-linecap="round"/><polygon points="243.05,370.25 287.6,391.7 287.6,292.7 243.05,271.25" fill="url(#env-electrical-cabinet-material-394f5c)" stroke="#172d3d" stroke-width="1" stroke-linejoin="round" data-material="#394f5c"/><polygon points="290.3,390.4 287.6,391.7 287.6,292.7 290.3,291.4" fill="url(#env-electrical-cabinet-material-223948)" stroke="#172d3d" stroke-width="1" stroke-linejoin="round" data-material="#223948"/><polygon points="245.75,269.95 290.3,291.4 287.6,292.7 243.05,271.25" fill="url(#env-electrical-cabinet-material-83949a)" stroke="#172d3d" stroke-width="1" stroke-linejoin="round" data-material="#83949a"/><path d="M243.05,271.25L287.6,292.7" fill="none" stroke="#9cadb3" stroke-width="1.2" stroke-linecap="round"/><path d="M287.6,292.7L290.3,291.4" fill="none" stroke="#88999f" stroke-width="1" stroke-linecap="round"/><path d="M287.6,292.7L287.6,391.7" fill="none" stroke="#485e6b" stroke-width="1" stroke-linecap="round"/><polygon points="295.7,395.6 340.25,417.05 340.25,318.05 295.7,296.6" fill="url(#env-electrical-cabinet-material-394f5c)" stroke="#172d3d" stroke-width="1" stroke-linejoin="round" data-material="#394f5c"/><polygon points="342.95,415.75 340.25,417.05 340.25,318.05 342.95,316.75" fill="url(#env-electrical-cabinet-material-223948)" stroke="#172d3d" stroke-width="1" stroke-linejoin="round" data-material="#223948"/><polygon points="298.4,295.3 342.95,316.75 340.25,318.05 295.7,296.6" fill="url(#env-electrical-cabinet-material-83949a)" stroke="#172d3d" stroke-width="1" stroke-linejoin="round" data-material="#83949a"/><path d="M295.7,296.6L340.25,318.05" fill="none" stroke="#9cadb3" stroke-width="1.2" stroke-linecap="round"/><path d="M340.25,318.05L342.95,316.75" fill="none" stroke="#88999f" stroke-width="1" stroke-linecap="round"/><path d="M340.25,318.05L340.25,417.05" fill="none" stroke="#485e6b" stroke-width="1" stroke-linecap="round"/><path d="M283.55,345.05L283.55,328.05" fill="none" stroke="#c4ced0" stroke-width="2" stroke-linecap="round"/><path d="M299.75,352.85L299.75,335.85" fill="none" stroke="#c4ced0" stroke-width="2" stroke-linecap="round"/><path d="M291.65,239.45L257.9,255.7" fill="none" stroke="#263e50" stroke-width="2" stroke-linecap="round"/><path d="M300.29,243.61L266.53999999999996,259.86" fill="none" stroke="#263e50" stroke-width="2" stroke-linecap="round"/><path d="M308.93,247.76999999999998L275.18,264.02" fill="none" stroke="#263e50" stroke-width="2" stroke-linecap="round"/><path d="M317.57,251.93L283.82,268.18" fill="none" stroke="#263e50" stroke-width="2" stroke-linecap="round"/><path d="M326.21,256.09L292.46,272.34" fill="none" stroke="#263e50" stroke-width="2" stroke-linecap="round"/><path d="M334.85,260.25L301.1,276.5" fill="none" stroke="#263e50" stroke-width="2" stroke-linecap="round"/><path d="M343.49,264.41L309.74,280.66" fill="none" stroke="#263e50" stroke-width="2" stroke-linecap="round"/><path d="M352.13,268.57L318.38,284.82" fill="none" stroke="#263e50" stroke-width="2" stroke-linecap="round"/><path d="M360.77,272.73L327.02,288.98" fill="none" stroke="#263e50" stroke-width="2" stroke-linecap="round"/><path d="M369.41,276.89L335.66,293.14" fill="none" stroke="#263e50" stroke-width="2" stroke-linecap="round"/></g></svg>