<svg xmlns="http://www.w3.org/2000/svg" width="640" height="640" viewBox="0 0 640 640"><defs><linearGradient id="env-conduit-amber-material-21323e" x1="0" y1="0" x2=".8" y2="1"><stop stop-color="#384955"/><stop offset=".18" stop-color="#283945"/><stop offset=".65" stop-color="#21323e"/><stop offset="1" stop-color="#0c1d29"/></linearGradient><linearGradient id="env-conduit-amber-material-152732" x1="0" y1="0" x2=".8" y2="1"><stop stop-color="#2c3e49"/><stop offset=".18" stop-color="#1c2e39"/><stop offset=".65" stop-color="#152732"/><stop offset="1" stop-color="#00121d"/></linearGradient><linearGradient id="env-conduit-amber-material-455763" x1="0" y1="0" x2=".8" y2="1"><stop stop-color="#5c6e7a"/><stop offset=".18" stop-color="#4c5e6a"/><stop offset=".65" stop-color="#455763"/><stop offset="1" stop-color="#30424e"/></linearGradient><linearGradient id="env-conduit-amber-material-354f60" x1="0" y1="0" x2=".8" y2="1"><stop stop-color="#4c6677"/><stop offset=".18" stop-color="#3c5667"/><stop offset=".65" stop-color="#354f60"/><stop offset="1" stop-color="#203a4b"/></linearGradient><linearGradient id="env-conduit-amber-material-1b3448" x1="0" y1="0" x2=".8" y2="1"><stop stop-color="#324b5f"/><stop offset=".18" stop-color="#223b4f"/><stop offset=".65" stop-color="#1b3448"/><stop offset="1" stop-color="#061f33"/></linearGradient><linearGradient id="env-conduit-amber-material-374f5d" x1="0" y1="0" x2=".8" y2="1"><stop stop-color="#4e6674"/><stop offset=".18" stop-color="#3e5664"/><stop offset=".65" stop-color="#374f5d"/><stop offset="1" stop-color="#223a48"/></linearGradient></defs><g><polygon points="197.14999999999998,359.65 399.65,457.15 399.65,448.15 197.14999999999998,350.65" fill="url(#env-conduit-amber-material-21323e)" stroke="#172d3d" stroke-width="1" stroke-linejoin="round" data-material="#21323e"/><polygon points="442.85,436.35 399.65,457.15 399.65,448.15 442.85,427.35" fill="url(#env-conduit-amber-material-152732)" stroke="#172d3d" stroke-width="1" stroke-linejoin="round" data-material="#152732"/><polygon points="240.35,329.85 442.85,427.35 399.65,448.15 197.14999999999998,350.65" fill="url(#env-conduit-amber-material-455763)" stroke="#172d3d" stroke-width="1" stroke-linejoin="round" data-material="#455763"/><path d="M197.14999999999998,350.65L399.65,448.15" fill="none" stroke="#5e707c" stroke-width="1.2" stroke-linecap="round"/><path d="M399.65,448.15L442.85,427.35" fill="none" stroke="#4a5c68" stroke-width="1" stroke-linecap="round"/><path d="M399.65,448.15L399.65,457.15" fill="none" stroke="#30414d" stroke-width="1" stroke-linecap="round"/><polygon points="206.6,350 401,443.6 401,435.6 206.6,342" fill="url(#env-conduit-amber-material-354f60)" stroke="#172d3d" stroke-width="1" stroke-linejoin="round" data-material="#354f60"/><polygon points="433.4,428 401,443.6 401,435.6 433.4,420" fill="url(#env-conduit-amber-material-1b3448)" stroke="#172d3d" stroke-width="1" stroke-linejoin="round" data-material="#1b3448"/><polygon points="239,326.4 433.4,420 401,435.6 206.6,342" fill="url(#env-conduit-amber-material-374f5d)" stroke="#172d3d" stroke-width="1" stroke-linejoin="round" data-material="#374f5d"/><path d="M206.6,342L401,435.6" fill="none" stroke="#506876" stroke-width="1.2" stroke-linecap="round"/><path d="M401,435.6L433.4,420" fill="none" stroke="#3c5462" stroke-width="1" stroke-linecap="round"/><path d="M401,435.6L401,443.6" fill="none" stroke="#445e6f" stroke-width="1" stroke-linecap="round"/><g opacity=".14"><path d="M206.6,342L401,435.6" fill="none" stroke="#ae935f" stroke-width="10" stroke-linecap="round"/><path d="M401,435.6L433.4,420" fill="none" stroke="#ae935f" stroke-width="8" stroke-linecap="round"/></g><path d="M206.6,342L401,435.6" fill="none" stroke="#ae935f" stroke-width="2" stroke-linecap="round"/><path d="M401,435.6L433.4,420" fill="none" stroke="#ae935f" stroke-width="1.5" stroke-linecap="round"/></g></svg>