<svg xmlns="http://www.w3.org/2000/svg" width="640" height="640" viewBox="0 0 640 640"><defs><linearGradient id="env-pipe-elbow-material-3c5666" x1="0" y1="0" x2=".8" y2="1"><stop stop-color="#536d7d"/><stop offset=".18" stop-color="#435d6d"/><stop offset=".65" stop-color="#3c5666"/><stop offset="1" stop-color="#274151"/></linearGradient><linearGradient id="env-pipe-elbow-material-253e50" x1="0" y1="0" x2=".8" y2="1"><stop stop-color="#3c5567"/><stop offset=".18" stop-color="#2c4557"/><stop offset=".65" stop-color="#253e50"/><stop offset="1" stop-color="#10293b"/></linearGradient><linearGradient id="env-pipe-elbow-material-617d8b" x1="0" y1="0" x2=".8" y2="1"><stop stop-color="#7894a2"/><stop offset=".18" stop-color="#688492"/><stop offset=".65" stop-color="#617d8b"/><stop offset="1" stop-color="#4c6876"/></linearGradient><linearGradient id="env-pipe-elbow-material-354f60" x1="0" y1="0" x2=".8" y2="1"><stop stop-color="#4c6677"/><stop offset=".18" stop-color="#3c5667"/><stop offset=".65" stop-color="#354f60"/><stop offset="1" stop-color="#203a4b"/></linearGradient><linearGradient id="env-pipe-elbow-material-1b3448" x1="0" y1="0" x2=".8" y2="1"><stop stop-color="#324b5f"/><stop offset=".18" stop-color="#223b4f"/><stop offset=".65" stop-color="#1b3448"/><stop offset="1" stop-color="#061f33"/></linearGradient><linearGradient id="env-pipe-elbow-material-89979b" x1="0" y1="0" x2=".8" y2="1"><stop stop-color="#a0aeb2"/><stop offset=".18" stop-color="#909ea2"/><stop offset=".65" stop-color="#89979b"/><stop offset="1" stop-color="#748286"/></linearGradient></defs><g><polygon points="209.3,329.4 382.1,412.6 382.1,403.6 209.3,320.4" fill="url(#env-pipe-elbow-material-3c5666)" stroke="#172d3d" stroke-width="1" stroke-linejoin="round" data-material="#3c5666"/><polygon points="396.95,405.45 382.1,412.6 382.1,403.6 396.95,396.45" fill="url(#env-pipe-elbow-material-253e50)" stroke="#172d3d" stroke-width="1" stroke-linejoin="round" data-material="#253e50"/><polygon points="224.14999999999998,313.25 396.95,396.45 382.1,403.6 209.3,320.4" fill="url(#env-pipe-elbow-material-617d8b)" stroke="#172d3d" stroke-width="1" stroke-linejoin="round" data-material="#617d8b"/><path d="M209.3,320.4L382.1,403.6" fill="none" stroke="#7a96a4" stroke-width="1.2" stroke-linecap="round"/><path d="M382.1,403.6L396.95,396.45" fill="none" stroke="#668290" stroke-width="1" stroke-linecap="round"/><path d="M382.1,403.6L382.1,412.6" fill="none" stroke="#4b6575" stroke-width="1" stroke-linecap="round"/><polygon points="240.35,348.95 247.1,352.2 247.1,339.2 240.35,335.95" fill="url(#env-pipe-elbow-material-354f60)" stroke="#172d3d" stroke-width="1" stroke-linejoin="round" data-material="#354f60"/><polygon points="267.35,342.45 247.1,352.2 247.1,339.2 267.35,329.45" fill="url(#env-pipe-elbow-material-1b3448)" stroke="#172d3d" stroke-width="1" stroke-linejoin="round" data-material="#1b3448"/><polygon points="260.6,326.2 267.35,329.45 247.1,339.2 240.35,335.95" fill="url(#env-pipe-elbow-material-89979b)" stroke="#172d3d" stroke-width="1" stroke-linejoin="round" data-material="#89979b"/><path d="M240.35,335.95L247.1,339.2" fill="none" stroke="#a2b0b4" stroke-width="1.2" stroke-linecap="round"/><path d="M247.1,339.2L267.35,329.45" fill="none" stroke="#8e9ca0" stroke-width="1" stroke-linecap="round"/><path d="M247.1,339.2L247.1,352.2" fill="none" stroke="#445e6f" stroke-width="1" stroke-linecap="round"/><polygon points="305.15,380.15 311.9,383.4 311.9,370.4 305.15,367.15" fill="url(#env-pipe-elbow-material-354f60)" stroke="#172d3d" stroke-width="1" stroke-linejoin="round" data-material="#354f60"/><polygon points="332.15,373.65 311.9,383.4 311.9,370.4 332.15,360.65" fill="url(#env-pipe-elbow-material-1b3448)" stroke="#172d3d" stroke-width="1" stroke-linejoin="round" data-material="#1b3448"/><polygon points="325.4,357.4 332.15,360.65 311.9,370.4 305.15,367.15" fill="url(#env-pipe-elbow-material-89979b)" stroke="#172d3d" stroke-width="1" stroke-linejoin="round" data-material="#89979b"/><path d="M305.15,367.15L311.9,370.4" fill="none" stroke="#a2b0b4" stroke-width="1.2" stroke-linecap="round"/><path d="M311.9,370.4L332.15,360.65" fill="none" stroke="#8e9ca0" stroke-width="1" stroke-linecap="round"/><path d="M311.9,370.4L311.9,383.4" fill="none" stroke="#445e6f" stroke-width="1" stroke-linecap="round"/><polygon points="367.25,410.05 374,413.3 374,400.3 367.25,397.05" fill="url(#env-pipe-elbow-material-354f60)" stroke="#172d3d" stroke-width="1" stroke-linejoin="round" data-material="#354f60"/><polygon points="394.25,403.55 374,413.3 374,400.3 394.25,390.55" fill="url(#env-pipe-elbow-material-1b3448)" stroke="#172d3d" stroke-width="1" stroke-linejoin="round" data-material="#1b3448"/><polygon points="387.5,387.3 394.25,390.55 374,400.3 367.25,397.05" fill="url(#env-pipe-elbow-material-89979b)" stroke="#172d3d" stroke-width="1" stroke-linejoin="round" data-material="#89979b"/><path d="M367.25,397.05L374,400.3" fill="none" stroke="#a2b0b4" stroke-width="1.2" stroke-linecap="round"/><path d="M374,400.3L394.25,390.55" fill="none" stroke="#8e9ca0" stroke-width="1" stroke-linecap="round"/><path d="M374,400.3L374,413.3" fill="none" stroke="#445e6f" stroke-width="1" stroke-linecap="round"/><polygon points="279.5,451.6 294.35,458.75 294.35,449.75 279.5,442.6" fill="url(#env-pipe-elbow-material-3c5666)" stroke="#172d3d" stroke-width="1" stroke-linejoin="round" data-material="#3c5666"/><polygon points="401,407.4 294.35,458.75 294.35,449.75 401,398.4" fill="url(#env-pipe-elbow-material-253e50)" stroke="#172d3d" stroke-width="1" stroke-linejoin="round" data-material="#253e50"/><polygon points="386.15,391.25 401,398.4 294.35,449.75 279.5,442.6" fill="url(#env-pipe-elbow-material-617d8b)" stroke="#172d3d" stroke-width="1" stroke-linejoin="round" data-material="#617d8b"/><path d="M279.5,442.6L294.35,449.75" fill="none" stroke="#7a96a4" stroke-width="1.2" stroke-linecap="round"/><path d="M294.35,449.75L401,398.4" fill="none" stroke="#668290" stroke-width="1" stroke-linecap="round"/><path d="M294.35,449.75L294.35,458.75" fill="none" stroke="#4b6575" stroke-width="1" stroke-linecap="round"/><polygon points="185,341.1 357.8,424.3 357.8,415.3 185,332.1" fill="url(#env-pipe-elbow-material-3c5666)" stroke="#172d3d" stroke-width="1" stroke-linejoin="round" data-material="#3c5666"/><polygon points="372.65,417.15 357.8,424.3 357.8,415.3 372.65,408.15" fill="url(#env-pipe-elbow-material-253e50)" stroke="#172d3d" stroke-width="1" stroke-linejoin="round" data-material="#253e50"/><polygon points="199.85,324.95 372.65,408.15 357.8,415.3 185,332.1" fill="url(#env-pipe-elbow-material-617d8b)" stroke="#172d3d" stroke-width="1" stroke-linejoin="round" data-material="#617d8b"/><path d="M185,332.1L357.8,415.3" fill="none" stroke="#7a96a4" stroke-width="1.2" stroke-linecap="round"/><path d="M357.8,415.3L372.65,408.15" fill="none" stroke="#668290" stroke-width="1" stroke-linecap="round"/><path d="M357.8,415.3L357.8,424.3" fill="none" stroke="#4b6575" stroke-width="1" stroke-linecap="round"/><polygon points="216.05,360.65 222.8,363.9 222.8,350.9 216.05,347.65" fill="url(#env-pipe-elbow-material-354f60)" stroke="#172d3d" stroke-width="1" stroke-linejoin="round" data-material="#354f60"/><polygon points="243.05,354.15 222.8,363.9 222.8,350.9 243.05,341.15" fill="url(#env-pipe-elbow-material-1b3448)" stroke="#172d3d" stroke-width="1" stroke-linejoin="round" data-material="#1b3448"/><polygon points="236.3,337.9 243.05,341.15 222.8,350.9 216.05,347.65" fill="url(#env-pipe-elbow-material-89979b)" stroke="#172d3d" stroke-width="1" stroke-linejoin="round" data-material="#89979b"/><path d="M216.05,347.65L222.8,350.9" fill="none" stroke="#a2b0b4" stroke-width="1.2" stroke-linecap="round"/><path d="M222.8,350.9L243.05,341.15" fill="none" stroke="#8e9ca0" stroke-width="1" stroke-linecap="round"/><path d="M222.8,350.9L222.8,363.9" fill="none" stroke="#445e6f" stroke-width="1" stroke-linecap="round"/><polygon points="280.85,391.85 287.6,395.1 287.6,382.1 280.85,378.85" fill="url(#env-pipe-elbow-material-354f60)" stroke="#172d3d" stroke-width="1" stroke-linejoin="round" data-material="#354f60"/><polygon points="307.85,385.35 287.6,395.1 287.6,382.1 307.85,372.35" fill="url(#env-pipe-elbow-material-1b3448)" stroke="#172d3d" stroke-width="1" stroke-linejoin="round" data-material="#1b3448"/><polygon points="301.1,369.1 307.85,372.35 287.6,382.1 280.85,378.85" fill="url(#env-pipe-elbow-material-89979b)" stroke="#172d3d" stroke-width="1" stroke-linejoin="round" data-material="#89979b"/><path d="M280.85,378.85L287.6,382.1" fill="none" stroke="#a2b0b4" stroke-width="1.2" stroke-linecap="round"/><path d="M287.6,382.1L307.85,372.35" fill="none" stroke="#8e9ca0" stroke-width="1" stroke-linecap="round"/><path d="M287.6,382.1L287.6,395.1" fill="none" stroke="#445e6f" stroke-width="1" stroke-linecap="round"/><polygon points="342.95,421.75 349.7,425 349.7,412 342.95,408.75" fill="url(#env-pipe-elbow-material-354f60)" stroke="#172d3d" stroke-width="1" stroke-linejoin="round" data-material="#354f60"/><polygon points="369.95,415.25 349.7,425 349.7,412 369.95,402.25" fill="url(#env-pipe-elbow-material-1b3448)" stroke="#172d3d" stroke-width="1" stroke-linejoin="round" data-material="#1b3448"/><polygon points="363.2,399 369.95,402.25 349.7,412 342.95,408.75" fill="url(#env-pipe-elbow-material-89979b)" stroke="#172d3d" stroke-width="1" stroke-linejoin="round" data-material="#89979b"/><path d="M342.95,408.75L349.7,412" fill="none" stroke="#a2b0b4" stroke-width="1.2" stroke-linecap="round"/><path d="M349.7,412L369.95,402.25" fill="none" stroke="#8e9ca0" stroke-width="1" stroke-linecap="round"/><path d="M349.7,412L349.7,425" fill="none" stroke="#445e6f" stroke-width="1" stroke-linecap="round"/><polygon points="279.5,451.6 294.35,458.75 294.35,449.75 279.5,442.6" fill="url(#env-pipe-elbow-material-3c5666)" stroke="#172d3d" stroke-width="1" stroke-linejoin="round" data-material="#3c5666"/><polygon points="376.7,419.1 294.35,458.75 294.35,449.75 376.7,410.1" fill="url(#env-pipe-elbow-material-253e50)" stroke="#172d3d" stroke-width="1" stroke-linejoin="round" data-material="#253e50"/><polygon points="361.85,402.95 376.7,410.1 294.35,449.75 279.5,442.6" fill="url(#env-pipe-elbow-material-617d8b)" stroke="#172d3d" stroke-width="1" stroke-linejoin="round" data-material="#617d8b"/><path d="M279.5,442.6L294.35,449.75" fill="none" stroke="#7a96a4" stroke-width="1.2" stroke-linecap="round"/><path d="M294.35,449.75L376.7,410.1" fill="none" stroke="#668290" stroke-width="1" stroke-linecap="round"/><path d="M294.35,449.75L294.35,458.75" fill="none" stroke="#4b6575" stroke-width="1" stroke-linecap="round"/></g></svg>