<svg xmlns="http://www.w3.org/2000/svg" width="640" height="640" viewBox="0 0 640 640"><defs><linearGradient id="intake-0-material-071823" x1="0" y1="0" x2=".8" y2="1"><stop stop-color="#1e2f3a"/><stop offset=".18" stop-color="#0e1f2a"/><stop offset=".65" stop-color="#071823"/><stop offset="1" stop-color="#00030e"/></linearGradient><linearGradient id="intake-0-material-182d40" x1="0" y1="0" x2=".8" y2="1"><stop stop-color="#2f4457"/><stop offset=".18" stop-color="#1f3447"/><stop offset=".65" stop-color="#182d40"/><stop offset="1" stop-color="#03182b"/></linearGradient><linearGradient id="intake-0-material-102335" x1="0" y1="0" x2=".8" y2="1"><stop stop-color="#273a4c"/><stop offset=".18" stop-color="#172a3c"/><stop offset=".65" stop-color="#102335"/><stop offset="1" stop-color="#000e20"/></linearGradient><linearGradient id="intake-0-material-3a5363" x1="0" y1="0" x2=".8" y2="1"><stop stop-color="#516a7a"/><stop offset=".18" stop-color="#415a6a"/><stop offset=".65" stop-color="#3a5363"/><stop offset="1" stop-color="#253e4e"/></linearGradient><linearGradient id="intake-0-material-2d4657" x1="0" y1="0" x2=".8" y2="1"><stop stop-color="#445d6e"/><stop offset=".18" stop-color="#344d5e"/><stop offset=".65" stop-color="#2d4657"/><stop offset="1" stop-color="#183142"/></linearGradient><linearGradient id="intake-0-material-233b4c" x1="0" y1="0" x2=".8" y2="1"><stop stop-color="#3a5263"/><stop offset=".18" stop-color="#2a4253"/><stop offset=".65" stop-color="#233b4c"/><stop offset="1" stop-color="#0e2637"/></linearGradient><linearGradient id="intake-0-material-526a78" x1="0" y1="0" x2=".8" y2="1"><stop stop-color="#69818f"/><stop offset=".18" stop-color="#59717f"/><stop offset=".65" stop-color="#526a78"/><stop offset="1" stop-color="#3d5563"/></linearGradient><linearGradient id="intake-0-material-354f60" x1="0" y1="0" x2=".8" y2="1"><stop stop-color="#4c6677"/><stop offset=".18" stop-color="#3c5667"/><stop offset=".65" stop-color="#354f60"/><stop offset="1" stop-color="#203a4b"/></linearGradient><linearGradient id="intake-0-material-1b3448" x1="0" y1="0" x2=".8" y2="1"><stop stop-color="#324b5f"/><stop offset=".18" stop-color="#223b4f"/><stop offset=".65" stop-color="#1b3448"/><stop offset="1" stop-color="#061f33"/></linearGradient><linearGradient id="intake-0-material-617f8d" x1="0" y1="0" x2=".8" y2="1"><stop stop-color="#7896a4"/><stop offset=".18" stop-color="#688694"/><stop offset=".65" stop-color="#617f8d"/><stop offset="1" stop-color="#4c6a78"/></linearGradient><linearGradient id="intake-0-material-7b929e" x1="0" y1="0" x2=".8" y2="1"><stop stop-color="#92a9b5"/><stop offset=".18" stop-color="#8299a5"/><stop offset=".65" stop-color="#7b929e"/><stop offset="1" stop-color="#667d89"/></linearGradient><linearGradient id="intake-0-material-a3b8bf" x1="0" y1="0" x2=".8" y2="1"><stop stop-color="#bacfd6"/><stop offset=".18" stop-color="#aabfc6"/><stop offset=".65" stop-color="#a3b8bf"/><stop offset="1" stop-color="#8ea3aa"/></linearGradient><linearGradient id="intake-0-material-55788b" x1="0" y1="0" x2=".8" y2="1"><stop stop-color="#6c8fa2"/><stop offset=".18" stop-color="#5c7f92"/><stop offset=".65" stop-color="#55788b"/><stop offset="1" stop-color="#406376"/></linearGradient><linearGradient id="intake-0-material-bed0cf" x1="0" y1="0" x2=".8" y2="1"><stop stop-color="#d5e7e6"/><stop offset=".18" stop-color="#c5d7d6"/><stop offset=".65" stop-color="#bed0cf"/><stop offset="1" stop-color="#a9bbba"/></linearGradient><linearGradient id="intake-0-material-193e56" x1="0" y1="0" x2=".8" y2="1"><stop stop-color="#30556d"/><stop offset=".18" stop-color="#20455d"/><stop offset=".65" stop-color="#193e56"/><stop offset="1" stop-color="#042941"/></linearGradient><linearGradient id="intake-0-material-8c9da5" x1="0" y1="0" x2=".8" y2="1"><stop stop-color="#a3b4bc"/><stop offset=".18" stop-color="#93a4ac"/><stop offset=".65" stop-color="#8c9da5"/><stop offset="1" stop-color="#778890"/></linearGradient><linearGradient id="intake-0-material-101f2d" x1="0" y1="0" x2=".8" y2="1"><stop stop-color="#273644"/><stop offset=".18" stop-color="#172634"/><stop offset=".65" stop-color="#101f2d"/><stop offset="1" stop-color="#000a18"/></linearGradient><linearGradient id="intake-0-material-466e84" x1="0" y1="0" x2=".8" y2="1"><stop stop-color="#5d859b"/><stop offset=".18" stop-color="#4d758b"/><stop offset=".65" stop-color="#466e84"/><stop offset="1" stop-color="#31596f"/></linearGradient></defs><g><polygon points="320,262.29999999999995 617,405.3 320,548.3 23,405.3" fill="url(#intake-0-material-071823)" stroke="#172d3d" stroke-width="1" stroke-linejoin="round" data-material="#071823"/><polygon points="50,398 320,528 320,515 50,385" fill="url(#intake-0-material-182d40)" stroke="#172d3d" stroke-width="1" stroke-linejoin="round" data-material="#182d40"/><polygon points="590,398 320,528 320,515 590,385" fill="url(#intake-0-material-102335)" stroke="#172d3d" stroke-width="1" stroke-linejoin="round" data-material="#102335"/><polygon points="320,255 590,385 320,515 50,385" fill="url(#intake-0-material-3a5363)" stroke="#172d3d" stroke-width="1" stroke-linejoin="round" data-material="#3a5363"/><path d="M50,385L320,515" fill="none" stroke="#536c7c" stroke-width="1.2" stroke-linecap="round"/><path d="M320,515L590,385" fill="none" stroke="#3f5868" stroke-width="1" stroke-linecap="round"/><path d="M320,515L320,528" fill="none" stroke="#273c4f" stroke-width="1" stroke-linecap="round"/><polygon points="66.19999999999999,385 320,507.20000000000005 320,501.20000000000005 66.19999999999999,379" fill="url(#intake-0-material-2d4657)" stroke="#172d3d" stroke-width="1" stroke-linejoin="round" data-material="#2d4657"/><polygon points="573.8,385 320,507.20000000000005 320,501.20000000000005 573.8,379" fill="url(#intake-0-material-233b4c)" stroke="#172d3d" stroke-width="1" stroke-linejoin="round" data-material="#233b4c"/><polygon points="320,256.8 573.8,379 320,501.20000000000005 66.19999999999999,379" fill="url(#intake-0-material-526a78)" stroke="#172d3d" stroke-width="1" stroke-linejoin="round" data-material="#526a78"/><path d="M66.19999999999999,379L320,501.20000000000005" fill="none" stroke="#6b8391" stroke-width="1.2" stroke-linecap="round"/><path d="M320,501.20000000000005L573.8,379" fill="none" stroke="#576f7d" stroke-width="1" stroke-linecap="round"/><path d="M320,501.20000000000005L320,507.20000000000005" fill="none" stroke="#3c5566" stroke-width="1" stroke-linecap="round"/><polygon points="185,271.4 309.2,331.2 309.2,309.2 185,249.39999999999998" fill="url(#intake-0-material-354f60)" stroke="#172d3d" stroke-width="1" stroke-linejoin="round" data-material="#354f60"/><polygon points="340.25,316.25 309.2,331.2 309.2,309.2 340.25,294.25" fill="url(#intake-0-material-1b3448)" stroke="#172d3d" stroke-width="1" stroke-linejoin="round" data-material="#1b3448"/><polygon points="216.05,234.45 340.25,294.25 309.2,309.2 185,249.39999999999998" fill="url(#intake-0-material-617f8d)" stroke="#172d3d" stroke-width="1" stroke-linejoin="round" data-material="#617f8d"/><path d="M185,249.39999999999998L309.2,309.2" fill="none" stroke="#7a98a6" stroke-width="1.2" stroke-linecap="round"/><path d="M309.2,309.2L340.25,294.25" fill="none" stroke="#668492" stroke-width="1" stroke-linecap="round"/><path d="M309.2,309.2L309.2,331.2" fill="none" stroke="#445e6f" stroke-width="1" stroke-linecap="round"/><g opacity=".14"><path d="M185,252.39999999999998L309.2,312.2" fill="none" stroke="#6be4eb" stroke-width="10" stroke-linecap="round"/><path d="M309.2,312.2L340.25,297.25" fill="none" stroke="#6be4eb" stroke-width="8" stroke-linecap="round"/></g><path d="M185,252.39999999999998L309.2,312.2" fill="none" stroke="#6be4eb" stroke-width="2" stroke-linecap="round"/><path d="M309.2,312.2L340.25,297.25" fill="none" stroke="#6be4eb" stroke-width="1.5" stroke-linecap="round"/><polygon points="128.29999999999998,298.7 252.5,358.5 252.5,336.5 128.29999999999998,276.7" fill="url(#intake-0-material-354f60)" stroke="#172d3d" stroke-width="1" stroke-linejoin="round" data-material="#354f60"/><polygon points="283.55,343.55 252.5,358.5 252.5,336.5 283.55,321.55" fill="url(#intake-0-material-1b3448)" stroke="#172d3d" stroke-width="1" stroke-linejoin="round" data-material="#1b3448"/><polygon points="159.35,261.75 283.55,321.55 252.5,336.5 128.29999999999998,276.7" fill="url(#intake-0-material-617f8d)" stroke="#172d3d" stroke-width="1" stroke-linejoin="round" data-material="#617f8d"/><path d="M128.29999999999998,276.7L252.5,336.5" fill="none" stroke="#7a98a6" stroke-width="1.2" stroke-linecap="round"/><path d="M252.5,336.5L283.55,321.55" fill="none" stroke="#668492" stroke-width="1" stroke-linecap="round"/><path d="M252.5,336.5L252.5,358.5" fill="none" stroke="#445e6f" stroke-width="1" stroke-linecap="round"/><g opacity=".14"><path d="M128.29999999999998,279.7L252.5,339.5" fill="none" stroke="#6be4eb" stroke-width="10" stroke-linecap="round"/><path d="M252.5,339.5L283.55,324.55" fill="none" stroke="#6be4eb" stroke-width="8" stroke-linecap="round"/></g><path d="M128.29999999999998,279.7L252.5,339.5" fill="none" stroke="#6be4eb" stroke-width="2" stroke-linecap="round"/><path d="M252.5,339.5L283.55,324.55" fill="none" stroke="#6be4eb" stroke-width="1.5" stroke-linecap="round"/><polygon points="71.6,326 195.8,385.8 195.8,363.8 71.6,304" fill="url(#intake-0-material-354f60)" stroke="#172d3d" stroke-width="1" stroke-linejoin="round" data-material="#354f60"/><polygon points="226.85,370.85 195.8,385.8 195.8,363.8 226.85,348.85" fill="url(#intake-0-material-1b3448)" stroke="#172d3d" stroke-width="1" stroke-linejoin="round" data-material="#1b3448"/><polygon points="102.64999999999998,289.05 226.85,348.85 195.8,363.8 71.6,304" fill="url(#intake-0-material-617f8d)" stroke="#172d3d" stroke-width="1" stroke-linejoin="round" data-material="#617f8d"/><path d="M71.6,304L195.8,363.8" fill="none" stroke="#7a98a6" stroke-width="1.2" stroke-linecap="round"/><path d="M195.8,363.8L226.85,348.85" fill="none" stroke="#668492" stroke-width="1" stroke-linecap="round"/><path d="M195.8,363.8L195.8,385.8" fill="none" stroke="#445e6f" stroke-width="1" stroke-linecap="round"/><g opacity=".14"><path d="M71.6,307L195.8,366.8" fill="none" stroke="#6be4eb" stroke-width="10" stroke-linecap="round"/><path d="M195.8,366.8L226.85,351.85" fill="none" stroke="#6be4eb" stroke-width="8" stroke-linecap="round"/></g><path d="M71.6,307L195.8,366.8" fill="none" stroke="#6be4eb" stroke-width="2" stroke-linecap="round"/><path d="M195.8,366.8L226.85,351.85" fill="none" stroke="#6be4eb" stroke-width="1.5" stroke-linecap="round"/><polygon points="162.04999999999998,387.45 303.8,455.7 303.8,397.7 162.04999999999998,329.45" fill="url(#intake-0-material-354f60)" stroke="#172d3d" stroke-width="1" stroke-linejoin="round" data-material="#354f60"/><polygon points="486.05,367.95 303.8,455.7 303.8,397.7 486.05,309.95" fill="url(#intake-0-material-1b3448)" stroke="#172d3d" stroke-width="1" stroke-linejoin="round" data-material="#1b3448"/><polygon points="344.3,241.7 486.05,309.95 303.8,397.7 162.04999999999998,329.45" fill="url(#intake-0-material-7b929e)" stroke="#172d3d" stroke-width="1" stroke-linejoin="round" data-material="#7b929e"/><path d="M162.04999999999998,329.45L303.8,397.7" fill="none" stroke="#94abb7" stroke-width="1.2" stroke-linecap="round"/><path d="M303.8,397.7L486.05,309.95" fill="none" stroke="#8097a3" stroke-width="1" stroke-linecap="round"/><path d="M303.8,397.7L303.8,455.7" fill="none" stroke="#445e6f" stroke-width="1" stroke-linecap="round"/><polygon points="145.85,326.85 310.55,406.15 310.55,397.15 145.85,317.85" fill="url(#intake-0-material-354f60)" stroke="#172d3d" stroke-width="1" stroke-linejoin="round" data-material="#354f60"/><polygon points="506.3,311.9 310.55,406.15 310.55,397.15 506.3,302.9" fill="url(#intake-0-material-1b3448)" stroke="#172d3d" stroke-width="1" stroke-linejoin="round" data-material="#1b3448"/><polygon points="341.6,223.60000000000002 506.3,302.9 310.55,397.15 145.85,317.85" fill="url(#intake-0-material-a3b8bf)" stroke="#172d3d" stroke-width="1" stroke-linejoin="round" data-material="#a3b8bf"/><path d="M145.85,317.85L310.55,397.15" fill="none" stroke="#bcd1d8" stroke-width="1.2" stroke-linecap="round"/><path d="M310.55,397.15L506.3,302.9" fill="none" stroke="#a8bdc4" stroke-width="1" stroke-linecap="round"/><path d="M310.55,397.15L310.55,406.15" fill="none" stroke="#445e6f" stroke-width="1" stroke-linecap="round"/><polygon points="205.25,321.75 297.05,365.95 297.05,331.95 205.25,287.75" fill="url(#intake-0-material-354f60)" stroke="#172d3d" stroke-width="1" stroke-linejoin="round" data-material="#354f60"/><polygon points="438.8,297.7 297.05,365.95 297.05,331.95 438.8,263.7" fill="url(#intake-0-material-1b3448)" stroke="#172d3d" stroke-width="1" stroke-linejoin="round" data-material="#1b3448"/><polygon points="347,219.5 438.8,263.7 297.05,331.95 205.25,287.75" fill="url(#intake-0-material-55788b)" stroke="#172d3d" stroke-width="1" stroke-linejoin="round" data-material="#55788b"/><path d="M205.25,287.75L297.05,331.95" fill="none" stroke="#6e91a4" stroke-width="1.2" stroke-linecap="round"/><path d="M297.05,331.95L438.8,263.7" fill="none" stroke="#5a7d90" stroke-width="1" stroke-linecap="round"/><path d="M297.05,331.95L297.05,365.95" fill="none" stroke="#445e6f" stroke-width="1" stroke-linecap="round"/><path d="M347,227.3L221.45,287.75" fill="none" stroke="#263e50" stroke-width="2" stroke-linecap="round"/><path d="M353.3,230.33333333333331L227.75,290.78333333333336" fill="none" stroke="#263e50" stroke-width="2" stroke-linecap="round"/><path d="M359.6,233.36666666666667L234.05,293.81666666666666" fill="none" stroke="#263e50" stroke-width="2" stroke-linecap="round"/><path d="M365.9,236.39999999999998L240.35,296.85" fill="none" stroke="#263e50" stroke-width="2" stroke-linecap="round"/><path d="M372.2,239.43333333333334L246.65,299.8833333333333" fill="none" stroke="#263e50" stroke-width="2" stroke-linecap="round"/><path d="M378.5,242.46666666666664L252.95,302.9166666666667" fill="none" stroke="#263e50" stroke-width="2" stroke-linecap="round"/><path d="M384.8,245.5L259.25,305.95" fill="none" stroke="#263e50" stroke-width="2" stroke-linecap="round"/><path d="M391.1,248.5333333333333L265.55,308.98333333333335" fill="none" stroke="#263e50" stroke-width="2" stroke-linecap="round"/><path d="M397.4,251.56666666666666L271.85,312.01666666666665" fill="none" stroke="#263e50" stroke-width="2" stroke-linecap="round"/><path d="M403.7,254.60000000000002L278.15,315.05" fill="none" stroke="#263e50" stroke-width="2" stroke-linecap="round"/><path d="M410,257.6333333333333L284.45,318.0833333333333" fill="none" stroke="#263e50" stroke-width="2" stroke-linecap="round"/><path d="M416.3,260.6666666666667L290.75,321.1166666666667" fill="none" stroke="#263e50" stroke-width="2" stroke-linecap="round"/><path d="M238 360V247L320 201 399 248V358L320 405Z" fill="#071d31" stroke="#86afbd" stroke-width="19" stroke-linejoin="bevel"/><path d="M249 353V254L320 215 388 255V352L320 391Z" fill="#103c58" stroke="#63ecff" stroke-width="6"/><path d="M268 344V267L320 236 369 268V343L320 372Z" fill="#1a6881" stroke="#b6faff" stroke-width="3"/><path d="M292 280L344 305 292 331" fill="none" stroke="#d5ffff" stroke-width="10" stroke-linejoin="round"/><polygon points="338.9,415.5 409.1,449.3 409.1,401.3 338.9,367.5" fill="url(#intake-0-material-354f60)" stroke="#172d3d" stroke-width="1" stroke-linejoin="round" data-material="#354f60"/><polygon points="471.20000000000005,419.4 409.1,449.3 409.1,401.3 471.20000000000005,371.4" fill="url(#intake-0-material-1b3448)" stroke="#172d3d" stroke-width="1" stroke-linejoin="round" data-material="#1b3448"/><polygon points="401,337.6 471.20000000000005,371.4 409.1,401.3 338.9,367.5" fill="url(#intake-0-material-bed0cf)" stroke="#172d3d" stroke-width="1" stroke-linejoin="round" data-material="#bed0cf"/><path d="M338.9,367.5L409.1,401.3" fill="none" stroke="#d7e9e8" stroke-width="1.2" stroke-linecap="round"/><path d="M409.1,401.3L471.20000000000005,371.4" fill="none" stroke="#c3d5d4" stroke-width="1" stroke-linecap="round"/><path d="M409.1,401.3L409.1,449.3" fill="none" stroke="#445e6f" stroke-width="1" stroke-linecap="round"/><polygon points="401,343.1 457.70000000000005,370.4 409.1,393.8 352.4,366.5" fill="url(#intake-0-material-193e56)" stroke="#172d3d" stroke-width="1" stroke-linejoin="round" data-material="#193e56"/><g opacity=".14"><path d="M145.85,315.85L310.55,395.15" fill="none" stroke="#6be4eb" stroke-width="10" stroke-linecap="round"/><path d="M310.55,395.15L506.3,300.9" fill="none" stroke="#6be4eb" stroke-width="8" stroke-linecap="round"/></g><path d="M145.85,315.85L310.55,395.15" fill="none" stroke="#6be4eb" stroke-width="2" stroke-linecap="round"/><path d="M310.55,395.15L506.3,300.9" fill="none" stroke="#6be4eb" stroke-width="1.5" stroke-linecap="round"/><path d="M178.25,384.25L178.25,348.25" fill="none" stroke="#7595a7" stroke-width="2" stroke-linecap="round"/><path d="M207.95,398.55L207.95,362.55" fill="none" stroke="#7595a7" stroke-width="2" stroke-linecap="round"/><path d="M237.64999999999998,412.85L237.64999999999998,376.85" fill="none" stroke="#7595a7" stroke-width="2" stroke-linecap="round"/><path d="M267.35,427.15L267.35,391.15" fill="none" stroke="#7595a7" stroke-width="2" stroke-linecap="round"/><polygon points="98.6,382.9 136.39999999999998,401.1 136.39999999999998,358.1 98.6,339.9" fill="url(#intake-0-material-354f60)" stroke="#172d3d" stroke-width="1" stroke-linejoin="round" data-material="#354f60"/><polygon points="167.45,386.15 136.39999999999998,401.1 136.39999999999998,358.1 167.45,343.15" fill="url(#intake-0-material-1b3448)" stroke="#172d3d" stroke-width="1" stroke-linejoin="round" data-material="#1b3448"/><polygon points="129.64999999999998,324.95 167.45,343.15 136.39999999999998,358.1 98.6,339.9" fill="url(#intake-0-material-7b929e)" stroke="#172d3d" stroke-width="1" stroke-linejoin="round" data-material="#7b929e"/><path d="M98.6,339.9L136.39999999999998,358.1" fill="none" stroke="#94abb7" stroke-width="1.2" stroke-linecap="round"/><path d="M136.39999999999998,358.1L167.45,343.15" fill="none" stroke="#8097a3" stroke-width="1" stroke-linecap="round"/><path d="M136.39999999999998,358.1L136.39999999999998,401.1" fill="none" stroke="#445e6f" stroke-width="1" stroke-linecap="round"/><polygon points="106.69999999999999,339.9 136.39999999999998,354.2 136.39999999999998,350.2 106.69999999999999,335.9" fill="url(#intake-0-material-354f60)" stroke="#172d3d" stroke-width="1" stroke-linejoin="round" data-material="#354f60"/><polygon points="159.35,343.15 136.39999999999998,354.2 136.39999999999998,350.2 159.35,339.15" fill="url(#intake-0-material-1b3448)" stroke="#172d3d" stroke-width="1" stroke-linejoin="round" data-material="#1b3448"/><polygon points="129.64999999999998,324.85 159.35,339.15 136.39999999999998,350.2 106.69999999999999,335.9" fill="url(#intake-0-material-8c9da5)" stroke="#172d3d" stroke-width="1" stroke-linejoin="round" data-material="#8c9da5"/><path d="M106.69999999999999,335.9L136.39999999999998,350.2" fill="none" stroke="#a5b6be" stroke-width="1.2" stroke-linecap="round"/><path d="M136.39999999999998,350.2L159.35,339.15" fill="none" stroke="#91a2aa" stroke-width="1" stroke-linecap="round"/><path d="M136.39999999999998,350.2L136.39999999999998,354.2" fill="none" stroke="#445e6f" stroke-width="1" stroke-linecap="round"/><path d="M162.04999999999998,381.75L162.04999999999998,353.75" fill="none" stroke="#162b3c" stroke-width="2" stroke-linecap="round"/><path d="M141.79999999999998,391.5L141.79999999999998,363.5" fill="none" stroke="#708996" stroke-width="1" stroke-linecap="round"/><path d="M158.26999999999998,378.83L146.11999999999998,384.68" fill="none" stroke="#112736" stroke-width="1.5" stroke-linecap="round"/><path d="M158.26999999999998,373.83L146.11999999999998,379.68" fill="none" stroke="#112736" stroke-width="1.5" stroke-linecap="round"/><path d="M158.26999999999998,368.83L146.11999999999998,374.68" fill="none" stroke="#112736" stroke-width="1.5" stroke-linecap="round"/><path d="M158.26999999999998,363.83L146.11999999999998,369.68" fill="none" stroke="#112736" stroke-width="1.5" stroke-linecap="round"/><path d="M158.26999999999998,358.83L146.11999999999998,364.68" fill="none" stroke="#112736" stroke-width="1.5" stroke-linecap="round"/><path d="M158.26999999999998,353.83L146.11999999999998,359.68" fill="none" stroke="#112736" stroke-width="1.5" stroke-linecap="round"/><path d="M158.26999999999998,348.83L146.11999999999998,354.68" fill="none" stroke="#112736" stroke-width="1.5" stroke-linecap="round"/><path d="M158.26999999999998,343.83L146.11999999999998,349.68" fill="none" stroke="#112736" stroke-width="1.5" stroke-linecap="round"/><polygon points="103.72999999999999,377.63 130.73,390.63 130.73,363.63 103.72999999999999,350.63" fill="url(#intake-0-material-101f2d)" stroke="#172d3d" stroke-width="1" stroke-linejoin="round" data-material="#101f2d"/><path d="M107.375,373.775L126.27499999999998,382.875" fill="none" stroke="#5b7380" stroke-width="1.5" stroke-linecap="round"/><path d="M121.54999999999998,378.25L126.94999999999999,380.85" fill="none" stroke="#6be4eb" stroke-width="2.5" stroke-linecap="round"/><path d="M108.04999999999998,372.75L114.79999999999998,376" fill="none" stroke="#81929b" stroke-width="0.7" stroke-linecap="round"/><path d="M107.375,371.6321428571428L126.27499999999998,380.73214285714283" fill="none" stroke="#5b7380" stroke-width="1.5" stroke-linecap="round"/><path d="M121.54999999999998,376.10714285714283L126.94999999999999,378.70714285714286" fill="none" stroke="#6be4eb" stroke-width="2.5" stroke-linecap="round"/><path d="M108.04999999999998,370.60714285714283L114.79999999999998,373.85714285714283" fill="none" stroke="#81929b" stroke-width="0.7" stroke-linecap="round"/><path d="M107.375,369.4892857142857L126.27499999999998,378.5892857142857" fill="none" stroke="#5b7380" stroke-width="1.5" stroke-linecap="round"/><path d="M121.54999999999998,373.9642857142857L126.94999999999999,376.56428571428575" fill="none" stroke="#6be4eb" stroke-width="2.5" stroke-linecap="round"/><path d="M108.04999999999998,368.4642857142857L114.79999999999998,371.7142857142857" fill="none" stroke="#81929b" stroke-width="0.7" stroke-linecap="round"/><path d="M107.375,367.34642857142853L126.27499999999998,376.44642857142856" fill="none" stroke="#5b7380" stroke-width="1.5" stroke-linecap="round"/><path d="M121.54999999999998,371.82142857142856L126.94999999999999,374.4214285714286" fill="none" stroke="#6be4eb" stroke-width="2.5" stroke-linecap="round"/><path d="M108.04999999999998,366.32142857142856L114.79999999999998,369.57142857142856" fill="none" stroke="#81929b" stroke-width="0.7" stroke-linecap="round"/><path d="M107.375,365.2035714285714L126.27499999999998,374.30357142857144" fill="none" stroke="#5b7380" stroke-width="1.5" stroke-linecap="round"/><path d="M121.54999999999998,369.67857142857144L126.94999999999999,372.27857142857147" fill="none" stroke="#6be4eb" stroke-width="2.5" stroke-linecap="round"/><path d="M108.04999999999998,364.17857142857144L114.79999999999998,367.42857142857144" fill="none" stroke="#81929b" stroke-width="0.7" stroke-linecap="round"/><path d="M107.375,363.06071428571425L126.27499999999998,372.1607142857143" fill="none" stroke="#5b7380" stroke-width="1.5" stroke-linecap="round"/><path d="M121.54999999999998,367.5357142857143L126.94999999999999,370.1357142857143" fill="none" stroke="#6be4eb" stroke-width="2.5" stroke-linecap="round"/><path d="M108.04999999999998,362.0357142857143L114.79999999999998,365.2857142857143" fill="none" stroke="#81929b" stroke-width="0.7" stroke-linecap="round"/><path d="M107.375,360.9178571428571L126.27499999999998,370.0178571428571" fill="none" stroke="#5b7380" stroke-width="1.5" stroke-linecap="round"/><path d="M121.54999999999998,365.3928571428571L126.94999999999999,367.99285714285713" fill="none" stroke="#6be4eb" stroke-width="2.5" stroke-linecap="round"/><path d="M108.04999999999998,359.8928571428571L114.79999999999998,363.1428571428571" fill="none" stroke="#81929b" stroke-width="0.7" stroke-linecap="round"/><circle cx="101.975" cy="380.175" r="1.2" fill="#b4c2c5"/><circle cx="101.975" cy="347.175" r="1.2" fill="#b4c2c5"/><circle cx="131.67499999999998" cy="394.475" r="1.2" fill="#b4c2c5"/><circle cx="131.67499999999998" cy="361.475" r="1.2" fill="#b4c2c5"/><path d="M129.64999999999998,328.75L114.79999999999998,335.9" fill="none" stroke="#263e50" stroke-width="2" stroke-linecap="round"/><path d="M133.25,330.48333333333335L118.4,337.6333333333333" fill="none" stroke="#263e50" stroke-width="2" stroke-linecap="round"/><path d="M136.84999999999997,332.21666666666664L121.99999999999997,339.3666666666667" fill="none" stroke="#263e50" stroke-width="2" stroke-linecap="round"/><path d="M140.45,333.95L125.6,341.1" fill="none" stroke="#263e50" stroke-width="2" stroke-linecap="round"/><path d="M144.04999999999998,335.68333333333334L129.2,342.8333333333333" fill="none" stroke="#263e50" stroke-width="2" stroke-linecap="round"/><path d="M147.65,337.4166666666667L132.8,344.56666666666666" fill="none" stroke="#263e50" stroke-width="2" stroke-linecap="round"/><polygon points="391.55,422.15 465.8,457.9 465.8,440.9 391.55,405.15" fill="url(#intake-0-material-354f60)" stroke="#172d3d" stroke-width="1" stroke-linejoin="round" data-material="#354f60"/><polygon points="502.25,440.35 465.8,457.9 465.8,440.9 502.25,423.35" fill="url(#intake-0-material-1b3448)" stroke="#172d3d" stroke-width="1" stroke-linejoin="round" data-material="#1b3448"/><polygon points="428,387.6 502.25,423.35 465.8,440.9 391.55,405.15" fill="url(#intake-0-material-466e84)" stroke="#172d3d" stroke-width="1" stroke-linejoin="round" data-material="#466e84"/><path d="M391.55,405.15L465.8,440.9" fill="none" stroke="#5f879d" stroke-width="1.2" stroke-linecap="round"/><path d="M465.8,440.9L502.25,423.35" fill="none" stroke="#4b7389" stroke-width="1" stroke-linecap="round"/><path d="M465.8,440.9L465.8,457.9" fill="none" stroke="#445e6f" stroke-width="1" stroke-linecap="round"/><g opacity=".14"><path d="M391.55,405.15L465.8,440.9" fill="none" stroke="#6be4eb" stroke-width="10" stroke-linecap="round"/><path d="M465.8,440.9L502.25,423.35" fill="none" stroke="#6be4eb" stroke-width="8" stroke-linecap="round"/></g><path d="M391.55,405.15L465.8,440.9" fill="none" stroke="#6be4eb" stroke-width="2" stroke-linecap="round"/><path d="M465.8,440.9L502.25,423.35" fill="none" stroke="#6be4eb" stroke-width="1.5" stroke-linecap="round"/></g></svg>